<svg xmlns="http://www.w3.org/2000/svg" width="375" viewBox="0 0 375 375" height="375" version="1.0">
<style>
    path {
        fill: #ff3377;
    }
    @media (prefers-color-scheme: dark) {
        path {
            fill: #ff3377;
        }
    }
</style>
<g><g><g><path d="M 131.875 -79.15625 L 109.328125 -142.9375 C 107.984375 -146.289062 106.566406 -150.21875 105.078125 -154.71875 C 103.597656 -159.21875 102.1875 -164.101562 100.84375 -169.375 C 99.5 -164.007812 98.082031 -159.050781 96.59375 -154.5 C 95.113281 -149.945312 93.707031 -146 92.375 -142.65625 L 69.953125 -79.15625 Z M 204.28125 0 L 170.8125 0 C 167.070312 0 164.03125 -0.882812 161.6875 -2.65625 C 159.34375 -4.425781 157.59375 -6.703125 156.4375 -9.484375 L 142.359375 -49.28125 L 59.328125 -49.28125 L 45.25 -9.484375 C 44.289062 -7.085938 42.613281 -4.90625 40.21875 -2.9375 C 37.820312 -0.976562 34.804688 0 31.171875 0 L -2.578125 0 L 78.875 -208.4375 L 122.96875 -208.4375 Z M 204.28125 0" transform="translate(86.646 290.153)"/></g></g></g></svg>
