<svg xmlns="http://www.w3.org/2000/svg" width="375" viewBox="0 0 375 375" height="375" version="1.0">
<g fill="#D32F23" fill-opacity=".42"><g><g><path d="M 25.046875 0 C 24.296875 0 23.945312 -0.375 24 -1.125 L 23.84375 -7.25 C 23.894531 -7.351562 23.863281 -7.445312 23.75 -7.53125 C 23.644531 -7.613281 23.539062 -7.65625 23.4375 -7.65625 L 16.421875 -7.65625 C 16.160156 -7.65625 15.972656 -7.519531 15.859375 -7.25 L 14.328125 -1.125 C 14.171875 -0.375 13.71875 0 12.96875 0 L 0.71875 0 C -0.0820312 0 -0.375 -0.425781 -0.15625 -1.28125 L 17.5625 -55.328125 C 17.769531 -56.023438 18.25 -56.375 19 -56.375 L 33.265625 -56.375 C 34.015625 -56.375 34.414062 -56.023438 34.46875 -55.328125 L 38.890625 -1.28125 L 38.890625 -1.125 C 38.890625 -0.375 38.488281 0 37.6875 0 Z M 19.171875 -19.65625 C 19.054688 -19.382812 19.132812 -19.25 19.40625 -19.25 L 23.1875 -19.25 C 23.351562 -19.25 23.488281 -19.382812 23.59375 -19.65625 L 23.28125 -34.546875 C 23.28125 -34.765625 23.210938 -34.859375 23.078125 -34.828125 C 22.941406 -34.804688 22.875 -34.710938 22.875 -34.546875 Z M 19.171875 -19.65625" transform="translate(76.63 189.906)"/></g></g></g><g fill="#D32F23" fill-opacity=".42"><g><g><path d="M 21.828125 0 C 21.179688 0 20.804688 -0.347656 20.703125 -1.046875 L 18.359375 -21.34375 C 18.359375 -21.550781 18.28125 -21.65625 18.125 -21.65625 C 17.90625 -21.65625 17.796875 -21.523438 17.796875 -21.265625 L 15.296875 -1.203125 C 15.242188 -0.828125 15.097656 -0.53125 14.859375 -0.3125 C 14.617188 -0.101562 14.335938 0 14.015625 0 L 1.609375 0 C 1.285156 0 1.03125 -0.101562 0.84375 -0.3125 C 0.65625 -0.53125 0.585938 -0.828125 0.640625 -1.203125 L 7.25 -55.15625 C 7.300781 -55.539062 7.445312 -55.835938 7.6875 -56.046875 C 7.925781 -56.265625 8.207031 -56.375 8.53125 -56.375 L 26.171875 -56.375 C 30.460938 -56.375 33.859375 -55.003906 36.359375 -52.265625 C 38.859375 -49.523438 40.109375 -45.898438 40.109375 -41.390625 C 40.109375 -40.097656 40.050781 -39.101562 39.9375 -38.40625 C 39.5625 -35.457031 38.726562 -32.816406 37.4375 -30.484375 C 36.15625 -28.148438 34.492188 -26.253906 32.453125 -24.796875 C 32.179688 -24.640625 32.101562 -24.453125 32.21875 -24.234375 L 35.671875 -1.375 L 35.671875 -1.046875 C 35.671875 -0.722656 35.5625 -0.46875 35.34375 -0.28125 C 35.132812 -0.09375 34.867188 0 34.546875 0 Z M 20.859375 -43.40625 C 20.585938 -43.40625 20.453125 -43.269531 20.453125 -43 L 19.25 -33.578125 C 19.25 -33.304688 19.382812 -33.171875 19.65625 -33.171875 L 20.703125 -33.171875 C 21.984375 -33.171875 23.066406 -33.734375 23.953125 -34.859375 C 24.835938 -35.992188 25.28125 -37.554688 25.28125 -39.546875 C 25.28125 -40.773438 24.984375 -41.722656 24.390625 -42.390625 C 23.804688 -43.066406 23.003906 -43.40625 21.984375 -43.40625 Z M 20.859375 -43.40625" transform="translate(118.104 189.906)"/></g></g></g><g fill="#D32F23" fill-opacity=".42"><g><g><path d="M 16.75 0.640625 C 12.132812 0.640625 8.484375 -0.550781 5.796875 -2.9375 C 3.109375 -5.320312 1.765625 -8.503906 1.765625 -12.484375 C 1.765625 -12.859375 1.820312 -13.53125 1.9375 -14.5 L 2.25 -16.984375 C 2.300781 -17.367188 2.445312 -17.664062 2.6875 -17.875 C 2.9375 -18.09375 3.222656 -18.203125 3.546875 -18.203125 L 15.78125 -18.203125 C 16.101562 -18.203125 16.359375 -18.09375 16.546875 -17.875 C 16.734375 -17.664062 16.800781 -17.367188 16.75 -16.984375 L 16.59375 -15.21875 C 16.476562 -14.363281 16.582031 -13.664062 16.90625 -13.125 C 17.226562 -12.59375 17.710938 -12.328125 18.359375 -12.328125 C 19.054688 -12.328125 19.644531 -12.617188 20.125 -13.203125 C 20.613281 -13.796875 20.859375 -14.519531 20.859375 -15.375 C 20.859375 -16.1875 20.46875 -17.019531 19.6875 -17.875 C 18.90625 -18.738281 17.414062 -20.054688 15.21875 -21.828125 C 13.070312 -23.597656 11.300781 -25.164062 9.90625 -26.53125 C 8.507812 -27.90625 7.300781 -29.597656 6.28125 -31.609375 C 5.257812 -33.617188 4.75 -35.914062 4.75 -38.5 C 4.75 -38.976562 4.800781 -39.804688 4.90625 -40.984375 C 5.5 -45.765625 7.484375 -49.628906 10.859375 -52.578125 C 14.242188 -55.535156 18.460938 -57.015625 23.515625 -57.015625 C 28.128906 -57.015625 31.765625 -55.78125 34.421875 -53.3125 C 37.078125 -50.84375 38.40625 -47.515625 38.40625 -43.328125 C 38.40625 -42.835938 38.351562 -42.054688 38.25 -40.984375 L 38.015625 -39.21875 C 37.960938 -38.84375 37.8125 -38.546875 37.5625 -38.328125 C 37.320312 -38.117188 37.039062 -38.015625 36.71875 -38.015625 L 24.5625 -38.015625 C 24.238281 -38.015625 23.984375 -38.117188 23.796875 -38.328125 C 23.609375 -38.546875 23.539062 -38.84375 23.59375 -39.21875 L 23.84375 -41.3125 C 23.894531 -42.113281 23.742188 -42.769531 23.390625 -43.28125 C 23.046875 -43.789062 22.550781 -44.046875 21.90625 -44.046875 C 21.15625 -44.046875 20.535156 -43.722656 20.046875 -43.078125 C 19.566406 -42.441406 19.328125 -41.582031 19.328125 -40.5 C 19.328125 -39.59375 19.703125 -38.65625 20.453125 -37.6875 C 21.203125 -36.71875 22.597656 -35.375 24.640625 -33.65625 C 27.378906 -31.351562 29.472656 -29.488281 30.921875 -28.0625 C 32.367188 -26.644531 33.507812 -25.085938 34.34375 -23.390625 C 35.175781 -21.703125 35.59375 -19.785156 35.59375 -17.640625 C 35.59375 -17.203125 35.539062 -16.445312 35.4375 -15.375 C 34.789062 -10.488281 32.757812 -6.597656 29.34375 -3.703125 C 25.9375 -0.804688 21.738281 0.640625 16.75 0.640625 Z M 16.75 0.640625" transform="translate(156.355 189.906)"/></g></g></g><g fill="#D32F23" fill-opacity=".42"><g><g><path d="M 37.203125 -44.609375 C 37.148438 -44.234375 37.003906 -43.9375 36.765625 -43.71875 C 36.523438 -43.507812 36.21875 -43.40625 35.84375 -43.40625 L 20.859375 -43.40625 C 20.585938 -43.40625 20.453125 -43.269531 20.453125 -43 L 19.484375 -35.109375 C 19.378906 -34.835938 19.488281 -34.703125 19.8125 -34.703125 L 27.625 -34.703125 C 28 -34.703125 28.28125 -34.59375 28.46875 -34.375 C 28.65625 -34.164062 28.722656 -33.875 28.671875 -33.5 L 27.375 -22.953125 C 27.21875 -22.148438 26.765625 -21.75 26.015625 -21.75 L 18.203125 -21.75 C 17.929688 -21.75 17.796875 -21.613281 17.796875 -21.34375 L 16.828125 -13.375 C 16.722656 -13.101562 16.832031 -12.96875 17.15625 -12.96875 L 32.125 -12.96875 C 32.507812 -12.96875 32.796875 -12.859375 32.984375 -12.640625 C 33.171875 -12.429688 33.234375 -12.132812 33.171875 -11.75 L 31.890625 -1.203125 C 31.835938 -0.828125 31.6875 -0.53125 31.4375 -0.3125 C 31.195312 -0.101562 30.890625 0 30.515625 0 L 1.609375 0 C 1.285156 0 1.03125 -0.101562 0.84375 -0.3125 C 0.65625 -0.53125 0.585938 -0.828125 0.640625 -1.203125 L 7.25 -55.15625 C 7.300781 -55.539062 7.445312 -55.835938 7.6875 -56.046875 C 7.925781 -56.265625 8.207031 -56.375 8.53125 -56.375 L 37.453125 -56.375 C 37.828125 -56.375 38.109375 -56.265625 38.296875 -56.046875 C 38.484375 -55.835938 38.550781 -55.539062 38.5 -55.15625 Z M 37.203125 -44.609375" transform="translate(192.513 189.906)"/></g></g></g><g fill="#D32F23" fill-opacity=".42"><g><g><path d="M 29.875 -55.15625 C 29.925781 -55.539062 30.070312 -55.835938 30.3125 -56.046875 C 30.5625 -56.265625 30.875 -56.375 31.25 -56.375 L 43.40625 -56.375 C 43.78125 -56.375 44.0625 -56.265625 44.25 -56.046875 C 44.4375 -55.835938 44.503906 -55.539062 44.453125 -55.15625 L 37.765625 -1.203125 C 37.710938 -0.828125 37.578125 -0.53125 37.359375 -0.3125 C 37.148438 -0.101562 36.859375 0 36.484375 0 L 22.546875 0 C 21.898438 0 21.523438 -0.347656 21.421875 -1.046875 L 18.359375 -25.765625 C 18.359375 -25.929688 18.300781 -26.015625 18.1875 -26.015625 C 18.082031 -26.015625 18.03125 -25.929688 18.03125 -25.765625 L 15.140625 -1.203125 C 15.085938 -0.828125 14.9375 -0.53125 14.6875 -0.3125 C 14.445312 -0.101562 14.164062 0 13.84375 0 L 1.609375 0 C 1.285156 0 1.03125 -0.101562 0.84375 -0.3125 C 0.65625 -0.53125 0.585938 -0.828125 0.640625 -1.203125 L 7.25 -55.15625 C 7.300781 -55.539062 7.445312 -55.835938 7.6875 -56.046875 C 7.925781 -56.265625 8.207031 -56.375 8.53125 -56.375 L 22.3125 -56.375 C 22.957031 -56.375 23.332031 -56.023438 23.4375 -55.328125 L 26.578125 -30.4375 C 26.578125 -30.28125 26.628906 -30.226562 26.734375 -30.28125 C 26.835938 -30.332031 26.921875 -30.410156 26.984375 -30.515625 Z M 29.875 -55.15625" transform="translate(227.221 189.906)"/></g></g></g><g fill="#D32F23" fill-opacity=".42"><g><g><path d="M 37.203125 -44.609375 C 37.148438 -44.234375 37.003906 -43.9375 36.765625 -43.71875 C 36.523438 -43.507812 36.21875 -43.40625 35.84375 -43.40625 L 20.859375 -43.40625 C 20.585938 -43.40625 20.453125 -43.269531 20.453125 -43 L 19.484375 -35.109375 C 19.378906 -34.835938 19.488281 -34.703125 19.8125 -34.703125 L 27.625 -34.703125 C 28 -34.703125 28.28125 -34.59375 28.46875 -34.375 C 28.65625 -34.164062 28.722656 -33.875 28.671875 -33.5 L 27.375 -22.953125 C 27.21875 -22.148438 26.765625 -21.75 26.015625 -21.75 L 18.203125 -21.75 C 17.929688 -21.75 17.796875 -21.613281 17.796875 -21.34375 L 16.828125 -13.375 C 16.722656 -13.101562 16.832031 -12.96875 17.15625 -12.96875 L 32.125 -12.96875 C 32.507812 -12.96875 32.796875 -12.859375 32.984375 -12.640625 C 33.171875 -12.429688 33.234375 -12.132812 33.171875 -11.75 L 31.890625 -1.203125 C 31.835938 -0.828125 31.6875 -0.53125 31.4375 -0.3125 C 31.195312 -0.101562 30.890625 0 30.515625 0 L 1.609375 0 C 1.285156 0 1.03125 -0.101562 0.84375 -0.3125 C 0.65625 -0.53125 0.585938 -0.828125 0.640625 -1.203125 L 7.25 -55.15625 C 7.300781 -55.539062 7.445312 -55.835938 7.6875 -56.046875 C 7.925781 -56.265625 8.207031 -56.375 8.53125 -56.375 L 37.453125 -56.375 C 37.828125 -56.375 38.109375 -56.265625 38.296875 -56.046875 C 38.484375 -55.835938 38.550781 -55.539062 38.5 -55.15625 Z M 37.203125 -44.609375" transform="translate(268.453 189.906)"/></g></g></g><g fill="#75C7FB"><g><g><path d="M 25.046875 0 C 24.296875 0 23.945312 -0.375 24 -1.125 L 23.84375 -7.25 C 23.894531 -7.351562 23.863281 -7.445312 23.75 -7.53125 C 23.644531 -7.613281 23.539062 -7.65625 23.4375 -7.65625 L 16.421875 -7.65625 C 16.160156 -7.65625 15.972656 -7.519531 15.859375 -7.25 L 14.328125 -1.125 C 14.171875 -0.375 13.71875 0 12.96875 0 L 0.71875 0 C -0.0820312 0 -0.375 -0.425781 -0.15625 -1.28125 L 17.5625 -55.328125 C 17.769531 -56.023438 18.25 -56.375 19 -56.375 L 33.265625 -56.375 C 34.015625 -56.375 34.414062 -56.023438 34.46875 -55.328125 L 38.890625 -1.28125 L 38.890625 -1.125 C 38.890625 -0.375 38.488281 0 37.6875 0 Z M 19.171875 -19.65625 C 19.054688 -19.382812 19.132812 -19.25 19.40625 -19.25 L 23.1875 -19.25 C 23.351562 -19.25 23.488281 -19.382812 23.59375 -19.65625 L 23.28125 -34.546875 C 23.28125 -34.765625 23.210938 -34.859375 23.078125 -34.828125 C 22.941406 -34.804688 22.875 -34.710938 22.875 -34.546875 Z M 19.171875 -19.65625" transform="translate(74.237 187.75)"/></g></g></g><g fill="#75C7FB"><g><g><path d="M 21.828125 0 C 21.179688 0 20.804688 -0.347656 20.703125 -1.046875 L 18.359375 -21.34375 C 18.359375 -21.550781 18.28125 -21.65625 18.125 -21.65625 C 17.90625 -21.65625 17.796875 -21.523438 17.796875 -21.265625 L 15.296875 -1.203125 C 15.242188 -0.828125 15.097656 -0.53125 14.859375 -0.3125 C 14.617188 -0.101562 14.335938 0 14.015625 0 L 1.609375 0 C 1.285156 0 1.03125 -0.101562 0.84375 -0.3125 C 0.65625 -0.53125 0.585938 -0.828125 0.640625 -1.203125 L 7.25 -55.15625 C 7.300781 -55.539062 7.445312 -55.835938 7.6875 -56.046875 C 7.925781 -56.265625 8.207031 -56.375 8.53125 -56.375 L 26.171875 -56.375 C 30.460938 -56.375 33.859375 -55.003906 36.359375 -52.265625 C 38.859375 -49.523438 40.109375 -45.898438 40.109375 -41.390625 C 40.109375 -40.097656 40.050781 -39.101562 39.9375 -38.40625 C 39.5625 -35.457031 38.726562 -32.816406 37.4375 -30.484375 C 36.15625 -28.148438 34.492188 -26.253906 32.453125 -24.796875 C 32.179688 -24.640625 32.101562 -24.453125 32.21875 -24.234375 L 35.671875 -1.375 L 35.671875 -1.046875 C 35.671875 -0.722656 35.5625 -0.46875 35.34375 -0.28125 C 35.132812 -0.09375 34.867188 0 34.546875 0 Z M 20.859375 -43.40625 C 20.585938 -43.40625 20.453125 -43.269531 20.453125 -43 L 19.25 -33.578125 C 19.25 -33.304688 19.382812 -33.171875 19.65625 -33.171875 L 20.703125 -33.171875 C 21.984375 -33.171875 23.066406 -33.734375 23.953125 -34.859375 C 24.835938 -35.992188 25.28125 -37.554688 25.28125 -39.546875 C 25.28125 -40.773438 24.984375 -41.722656 24.390625 -42.390625 C 23.804688 -43.066406 23.003906 -43.40625 21.984375 -43.40625 Z M 20.859375 -43.40625" transform="translate(115.71 187.75)"/></g></g></g><g fill="#75C7FB"><g><g><path d="M 16.75 0.640625 C 12.132812 0.640625 8.484375 -0.550781 5.796875 -2.9375 C 3.109375 -5.320312 1.765625 -8.503906 1.765625 -12.484375 C 1.765625 -12.859375 1.820312 -13.53125 1.9375 -14.5 L 2.25 -16.984375 C 2.300781 -17.367188 2.445312 -17.664062 2.6875 -17.875 C 2.9375 -18.09375 3.222656 -18.203125 3.546875 -18.203125 L 15.78125 -18.203125 C 16.101562 -18.203125 16.359375 -18.09375 16.546875 -17.875 C 16.734375 -17.664062 16.800781 -17.367188 16.75 -16.984375 L 16.59375 -15.21875 C 16.476562 -14.363281 16.582031 -13.664062 16.90625 -13.125 C 17.226562 -12.59375 17.710938 -12.328125 18.359375 -12.328125 C 19.054688 -12.328125 19.644531 -12.617188 20.125 -13.203125 C 20.613281 -13.796875 20.859375 -14.519531 20.859375 -15.375 C 20.859375 -16.1875 20.46875 -17.019531 19.6875 -17.875 C 18.90625 -18.738281 17.414062 -20.054688 15.21875 -21.828125 C 13.070312 -23.597656 11.300781 -25.164062 9.90625 -26.53125 C 8.507812 -27.90625 7.300781 -29.597656 6.28125 -31.609375 C 5.257812 -33.617188 4.75 -35.914062 4.75 -38.5 C 4.75 -38.976562 4.800781 -39.804688 4.90625 -40.984375 C 5.5 -45.765625 7.484375 -49.628906 10.859375 -52.578125 C 14.242188 -55.535156 18.460938 -57.015625 23.515625 -57.015625 C 28.128906 -57.015625 31.765625 -55.78125 34.421875 -53.3125 C 37.078125 -50.84375 38.40625 -47.515625 38.40625 -43.328125 C 38.40625 -42.835938 38.351562 -42.054688 38.25 -40.984375 L 38.015625 -39.21875 C 37.960938 -38.84375 37.8125 -38.546875 37.5625 -38.328125 C 37.320312 -38.117188 37.039062 -38.015625 36.71875 -38.015625 L 24.5625 -38.015625 C 24.238281 -38.015625 23.984375 -38.117188 23.796875 -38.328125 C 23.609375 -38.546875 23.539062 -38.84375 23.59375 -39.21875 L 23.84375 -41.3125 C 23.894531 -42.113281 23.742188 -42.769531 23.390625 -43.28125 C 23.046875 -43.789062 22.550781 -44.046875 21.90625 -44.046875 C 21.15625 -44.046875 20.535156 -43.722656 20.046875 -43.078125 C 19.566406 -42.441406 19.328125 -41.582031 19.328125 -40.5 C 19.328125 -39.59375 19.703125 -38.65625 20.453125 -37.6875 C 21.203125 -36.71875 22.597656 -35.375 24.640625 -33.65625 C 27.378906 -31.351562 29.472656 -29.488281 30.921875 -28.0625 C 32.367188 -26.644531 33.507812 -25.085938 34.34375 -23.390625 C 35.175781 -21.703125 35.59375 -19.785156 35.59375 -17.640625 C 35.59375 -17.203125 35.539062 -16.445312 35.4375 -15.375 C 34.789062 -10.488281 32.757812 -6.597656 29.34375 -3.703125 C 25.9375 -0.804688 21.738281 0.640625 16.75 0.640625 Z M 16.75 0.640625" transform="translate(153.961 187.75)"/></g></g></g><g fill="#75C7FB"><g><g><path d="M 37.203125 -44.609375 C 37.148438 -44.234375 37.003906 -43.9375 36.765625 -43.71875 C 36.523438 -43.507812 36.21875 -43.40625 35.84375 -43.40625 L 20.859375 -43.40625 C 20.585938 -43.40625 20.453125 -43.269531 20.453125 -43 L 19.484375 -35.109375 C 19.378906 -34.835938 19.488281 -34.703125 19.8125 -34.703125 L 27.625 -34.703125 C 28 -34.703125 28.28125 -34.59375 28.46875 -34.375 C 28.65625 -34.164062 28.722656 -33.875 28.671875 -33.5 L 27.375 -22.953125 C 27.21875 -22.148438 26.765625 -21.75 26.015625 -21.75 L 18.203125 -21.75 C 17.929688 -21.75 17.796875 -21.613281 17.796875 -21.34375 L 16.828125 -13.375 C 16.722656 -13.101562 16.832031 -12.96875 17.15625 -12.96875 L 32.125 -12.96875 C 32.507812 -12.96875 32.796875 -12.859375 32.984375 -12.640625 C 33.171875 -12.429688 33.234375 -12.132812 33.171875 -11.75 L 31.890625 -1.203125 C 31.835938 -0.828125 31.6875 -0.53125 31.4375 -0.3125 C 31.195312 -0.101562 30.890625 0 30.515625 0 L 1.609375 0 C 1.285156 0 1.03125 -0.101562 0.84375 -0.3125 C 0.65625 -0.53125 0.585938 -0.828125 0.640625 -1.203125 L 7.25 -55.15625 C 7.300781 -55.539062 7.445312 -55.835938 7.6875 -56.046875 C 7.925781 -56.265625 8.207031 -56.375 8.53125 -56.375 L 37.453125 -56.375 C 37.828125 -56.375 38.109375 -56.265625 38.296875 -56.046875 C 38.484375 -55.835938 38.550781 -55.539062 38.5 -55.15625 Z M 37.203125 -44.609375" transform="translate(190.119 187.75)"/></g></g></g><g fill="#75C7FB"><g><g><path d="M 29.875 -55.15625 C 29.925781 -55.539062 30.070312 -55.835938 30.3125 -56.046875 C 30.5625 -56.265625 30.875 -56.375 31.25 -56.375 L 43.40625 -56.375 C 43.78125 -56.375 44.0625 -56.265625 44.25 -56.046875 C 44.4375 -55.835938 44.503906 -55.539062 44.453125 -55.15625 L 37.765625 -1.203125 C 37.710938 -0.828125 37.578125 -0.53125 37.359375 -0.3125 C 37.148438 -0.101562 36.859375 0 36.484375 0 L 22.546875 0 C 21.898438 0 21.523438 -0.347656 21.421875 -1.046875 L 18.359375 -25.765625 C 18.359375 -25.929688 18.300781 -26.015625 18.1875 -26.015625 C 18.082031 -26.015625 18.03125 -25.929688 18.03125 -25.765625 L 15.140625 -1.203125 C 15.085938 -0.828125 14.9375 -0.53125 14.6875 -0.3125 C 14.445312 -0.101562 14.164062 0 13.84375 0 L 1.609375 0 C 1.285156 0 1.03125 -0.101562 0.84375 -0.3125 C 0.65625 -0.53125 0.585938 -0.828125 0.640625 -1.203125 L 7.25 -55.15625 C 7.300781 -55.539062 7.445312 -55.835938 7.6875 -56.046875 C 7.925781 -56.265625 8.207031 -56.375 8.53125 -56.375 L 22.3125 -56.375 C 22.957031 -56.375 23.332031 -56.023438 23.4375 -55.328125 L 26.578125 -30.4375 C 26.578125 -30.28125 26.628906 -30.226562 26.734375 -30.28125 C 26.835938 -30.332031 26.921875 -30.410156 26.984375 -30.515625 Z M 29.875 -55.15625" transform="translate(224.827 187.75)"/></g></g></g><g fill="#75C7FB"><g><g><path d="M 37.203125 -44.609375 C 37.148438 -44.234375 37.003906 -43.9375 36.765625 -43.71875 C 36.523438 -43.507812 36.21875 -43.40625 35.84375 -43.40625 L 20.859375 -43.40625 C 20.585938 -43.40625 20.453125 -43.269531 20.453125 -43 L 19.484375 -35.109375 C 19.378906 -34.835938 19.488281 -34.703125 19.8125 -34.703125 L 27.625 -34.703125 C 28 -34.703125 28.28125 -34.59375 28.46875 -34.375 C 28.65625 -34.164062 28.722656 -33.875 28.671875 -33.5 L 27.375 -22.953125 C 27.21875 -22.148438 26.765625 -21.75 26.015625 -21.75 L 18.203125 -21.75 C 17.929688 -21.75 17.796875 -21.613281 17.796875 -21.34375 L 16.828125 -13.375 C 16.722656 -13.101562 16.832031 -12.96875 17.15625 -12.96875 L 32.125 -12.96875 C 32.507812 -12.96875 32.796875 -12.859375 32.984375 -12.640625 C 33.171875 -12.429688 33.234375 -12.132812 33.171875 -11.75 L 31.890625 -1.203125 C 31.835938 -0.828125 31.6875 -0.53125 31.4375 -0.3125 C 31.195312 -0.101562 30.890625 0 30.515625 0 L 1.609375 0 C 1.285156 0 1.03125 -0.101562 0.84375 -0.3125 C 0.65625 -0.53125 0.585938 -0.828125 0.640625 -1.203125 L 7.25 -55.15625 C 7.300781 -55.539062 7.445312 -55.835938 7.6875 -56.046875 C 7.925781 -56.265625 8.207031 -56.375 8.53125 -56.375 L 37.453125 -56.375 C 37.828125 -56.375 38.109375 -56.265625 38.296875 -56.046875 C 38.484375 -55.835938 38.550781 -55.539062 38.5 -55.15625 Z M 37.203125 -44.609375" transform="translate(266.059 187.75)"/></g></g></g><g fill="#D32F23" fill-opacity=".42"><g><g><path d="M 16.984375 0.640625 C 12.265625 0.640625 8.546875 -0.601562 5.828125 -3.09375 C 3.117188 -5.59375 1.765625 -8.988281 1.765625 -13.28125 C 1.765625 -13.769531 1.820312 -14.601562 1.9375 -15.78125 L 5 -40.671875 C 5.582031 -45.660156 7.617188 -49.628906 11.109375 -52.578125 C 14.597656 -55.535156 18.921875 -57.015625 24.078125 -57.015625 C 28.742188 -57.015625 32.457031 -55.753906 35.21875 -53.234375 C 37.988281 -50.710938 39.375 -47.300781 39.375 -43 C 39.375 -42.414062 39.320312 -41.582031 39.21875 -40.5 L 38.890625 -37.84375 C 38.734375 -37.039062 38.28125 -36.640625 37.53125 -36.640625 L 25.203125 -36.640625 C 24.828125 -36.640625 24.546875 -36.742188 24.359375 -36.953125 C 24.171875 -37.171875 24.101562 -37.46875 24.15625 -37.84375 L 24.5625 -40.671875 C 24.664062 -41.691406 24.53125 -42.507812 24.15625 -43.125 C 23.78125 -43.738281 23.242188 -44.046875 22.546875 -44.046875 C 21.796875 -44.046875 21.148438 -43.738281 20.609375 -43.125 C 20.078125 -42.507812 19.757812 -41.691406 19.65625 -40.671875 L 16.59375 -15.703125 C 16.476562 -14.679688 16.609375 -13.863281 16.984375 -13.25 C 17.367188 -12.632812 17.910156 -12.328125 18.609375 -12.328125 C 19.359375 -12.328125 19.988281 -12.632812 20.5 -13.25 C 21.007812 -13.863281 21.316406 -14.679688 21.421875 -15.703125 L 21.984375 -19.734375 C 21.984375 -20.003906 21.847656 -20.140625 21.578125 -20.140625 L 20.9375 -20.140625 C 20.5625 -20.140625 20.28125 -20.242188 20.09375 -20.453125 C 19.90625 -20.671875 19.835938 -20.96875 19.890625 -21.34375 L 21.015625 -30.609375 C 21.066406 -30.984375 21.210938 -31.273438 21.453125 -31.484375 C 21.703125 -31.703125 21.988281 -31.8125 22.3125 -31.8125 L 36.96875 -31.8125 C 37.34375 -31.8125 37.625 -31.703125 37.8125 -31.484375 C 38 -31.273438 38.066406 -30.984375 38.015625 -30.609375 L 36.15625 -15.78125 C 35.5625 -10.789062 33.503906 -6.804688 29.984375 -3.828125 C 26.472656 -0.847656 22.140625 0.640625 16.984375 0.640625 Z M 16.984375 0.640625" transform="translate(92.934 253.992)"/></g></g></g><g fill="#D32F23" fill-opacity=".42"><g><g><path d="M 25.046875 0 C 24.296875 0 23.945312 -0.375 24 -1.125 L 23.84375 -7.25 C 23.894531 -7.351562 23.863281 -7.445312 23.75 -7.53125 C 23.644531 -7.613281 23.539062 -7.65625 23.4375 -7.65625 L 16.421875 -7.65625 C 16.160156 -7.65625 15.972656 -7.519531 15.859375 -7.25 L 14.328125 -1.125 C 14.171875 -0.375 13.71875 0 12.96875 0 L 0.71875 0 C -0.0820312 0 -0.375 -0.425781 -0.15625 -1.28125 L 17.5625 -55.328125 C 17.769531 -56.023438 18.25 -56.375 19 -56.375 L 33.265625 -56.375 C 34.015625 -56.375 34.414062 -56.023438 34.46875 -55.328125 L 38.890625 -1.28125 L 38.890625 -1.125 C 38.890625 -0.375 38.488281 0 37.6875 0 Z M 19.171875 -19.65625 C 19.054688 -19.382812 19.132812 -19.25 19.40625 -19.25 L 23.1875 -19.25 C 23.351562 -19.25 23.488281 -19.382812 23.59375 -19.65625 L 23.28125 -34.546875 C 23.28125 -34.765625 23.210938 -34.859375 23.078125 -34.828125 C 22.941406 -34.804688 22.875 -34.710938 22.875 -34.546875 Z M 19.171875 -19.65625" transform="translate(130.3 253.992)"/></g></g></g><g fill="#D32F23" fill-opacity=".42"><g><g><path d="M 33.09375 -55.484375 C 33.414062 -56.078125 33.898438 -56.375 34.546875 -56.375 L 46.78125 -56.375 C 47.101562 -56.375 47.359375 -56.265625 47.546875 -56.046875 C 47.734375 -55.835938 47.800781 -55.539062 47.75 -55.15625 L 41.15625 -1.203125 C 41.101562 -0.828125 40.953125 -0.53125 40.703125 -0.3125 C 40.460938 -0.101562 40.179688 0 39.859375 0 L 27.46875 0 C 27.144531 0 26.890625 -0.101562 26.703125 -0.3125 C 26.515625 -0.53125 26.445312 -0.828125 26.5 -1.203125 L 30.515625 -34.140625 C 30.578125 -34.359375 30.539062 -34.476562 30.40625 -34.5 C 30.269531 -34.53125 30.144531 -34.46875 30.03125 -34.3125 L 24.5625 -26.421875 L 23.59375 -24.96875 L 23.515625 -24.96875 L 19.40625 -34.3125 C 19.351562 -34.46875 19.269531 -34.53125 19.15625 -34.5 C 19.050781 -34.476562 18.972656 -34.359375 18.921875 -34.140625 L 14.890625 -1.203125 C 14.835938 -0.828125 14.703125 -0.53125 14.484375 -0.3125 C 14.273438 -0.101562 13.984375 0 13.609375 0 L 1.28125 0 C 0.90625 0 0.625 -0.101562 0.4375 -0.3125 C 0.25 -0.53125 0.179688 -0.828125 0.234375 -1.203125 L 6.84375 -55.15625 C 6.894531 -55.539062 7.039062 -55.835938 7.28125 -56.046875 C 7.53125 -56.265625 7.816406 -56.375 8.140625 -56.375 L 20.375 -56.375 C 21.019531 -56.375 21.445312 -56.078125 21.65625 -55.484375 L 25.9375 -45.015625 C 26.039062 -44.796875 26.203125 -44.796875 26.421875 -45.015625 Z M 33.09375 -55.484375" transform="translate(171.772 253.992)"/></g></g></g><g fill="#D32F23" fill-opacity=".42"><g><g><path d="M 37.203125 -44.609375 C 37.148438 -44.234375 37.003906 -43.9375 36.765625 -43.71875 C 36.523438 -43.507812 36.21875 -43.40625 35.84375 -43.40625 L 20.859375 -43.40625 C 20.585938 -43.40625 20.453125 -43.269531 20.453125 -43 L 19.484375 -35.109375 C 19.378906 -34.835938 19.488281 -34.703125 19.8125 -34.703125 L 27.625 -34.703125 C 28 -34.703125 28.28125 -34.59375 28.46875 -34.375 C 28.65625 -34.164062 28.722656 -33.875 28.671875 -33.5 L 27.375 -22.953125 C 27.21875 -22.148438 26.765625 -21.75 26.015625 -21.75 L 18.203125 -21.75 C 17.929688 -21.75 17.796875 -21.613281 17.796875 -21.34375 L 16.828125 -13.375 C 16.722656 -13.101562 16.832031 -12.96875 17.15625 -12.96875 L 32.125 -12.96875 C 32.507812 -12.96875 32.796875 -12.859375 32.984375 -12.640625 C 33.171875 -12.429688 33.234375 -12.132812 33.171875 -11.75 L 31.890625 -1.203125 C 31.835938 -0.828125 31.6875 -0.53125 31.4375 -0.3125 C 31.195312 -0.101562 30.890625 0 30.515625 0 L 1.609375 0 C 1.285156 0 1.03125 -0.101562 0.84375 -0.3125 C 0.65625 -0.53125 0.585938 -0.828125 0.640625 -1.203125 L 7.25 -55.15625 C 7.300781 -55.539062 7.445312 -55.835938 7.6875 -56.046875 C 7.925781 -56.265625 8.207031 -56.375 8.53125 -56.375 L 37.453125 -56.375 C 37.828125 -56.375 38.109375 -56.265625 38.296875 -56.046875 C 38.484375 -55.835938 38.550781 -55.539062 38.5 -55.15625 Z M 37.203125 -44.609375" transform="translate(215.983 253.992)"/></g></g></g><g fill="#D32F23" fill-opacity=".42"><g><g><path d="M 16.75 0.640625 C 12.132812 0.640625 8.484375 -0.550781 5.796875 -2.9375 C 3.109375 -5.320312 1.765625 -8.503906 1.765625 -12.484375 C 1.765625 -12.859375 1.820312 -13.53125 1.9375 -14.5 L 2.25 -16.984375 C 2.300781 -17.367188 2.445312 -17.664062 2.6875 -17.875 C 2.9375 -18.09375 3.222656 -18.203125 3.546875 -18.203125 L 15.78125 -18.203125 C 16.101562 -18.203125 16.359375 -18.09375 16.546875 -17.875 C 16.734375 -17.664062 16.800781 -17.367188 16.75 -16.984375 L 16.59375 -15.21875 C 16.476562 -14.363281 16.582031 -13.664062 16.90625 -13.125 C 17.226562 -12.59375 17.710938 -12.328125 18.359375 -12.328125 C 19.054688 -12.328125 19.644531 -12.617188 20.125 -13.203125 C 20.613281 -13.796875 20.859375 -14.519531 20.859375 -15.375 C 20.859375 -16.1875 20.46875 -17.019531 19.6875 -17.875 C 18.90625 -18.738281 17.414062 -20.054688 15.21875 -21.828125 C 13.070312 -23.597656 11.300781 -25.164062 9.90625 -26.53125 C 8.507812 -27.90625 7.300781 -29.597656 6.28125 -31.609375 C 5.257812 -33.617188 4.75 -35.914062 4.75 -38.5 C 4.75 -38.976562 4.800781 -39.804688 4.90625 -40.984375 C 5.5 -45.765625 7.484375 -49.628906 10.859375 -52.578125 C 14.242188 -55.535156 18.460938 -57.015625 23.515625 -57.015625 C 28.128906 -57.015625 31.765625 -55.78125 34.421875 -53.3125 C 37.078125 -50.84375 38.40625 -47.515625 38.40625 -43.328125 C 38.40625 -42.835938 38.351562 -42.054688 38.25 -40.984375 L 38.015625 -39.21875 C 37.960938 -38.84375 37.8125 -38.546875 37.5625 -38.328125 C 37.320312 -38.117188 37.039062 -38.015625 36.71875 -38.015625 L 24.5625 -38.015625 C 24.238281 -38.015625 23.984375 -38.117188 23.796875 -38.328125 C 23.609375 -38.546875 23.539062 -38.84375 23.59375 -39.21875 L 23.84375 -41.3125 C 23.894531 -42.113281 23.742188 -42.769531 23.390625 -43.28125 C 23.046875 -43.789062 22.550781 -44.046875 21.90625 -44.046875 C 21.15625 -44.046875 20.535156 -43.722656 20.046875 -43.078125 C 19.566406 -42.441406 19.328125 -41.582031 19.328125 -40.5 C 19.328125 -39.59375 19.703125 -38.65625 20.453125 -37.6875 C 21.203125 -36.71875 22.597656 -35.375 24.640625 -33.65625 C 27.378906 -31.351562 29.472656 -29.488281 30.921875 -28.0625 C 32.367188 -26.644531 33.507812 -25.085938 34.34375 -23.390625 C 35.175781 -21.703125 35.59375 -19.785156 35.59375 -17.640625 C 35.59375 -17.203125 35.539062 -16.445312 35.4375 -15.375 C 34.789062 -10.488281 32.757812 -6.597656 29.34375 -3.703125 C 25.9375 -0.804688 21.738281 0.640625 16.75 0.640625 Z M 16.75 0.640625" transform="translate(250.692 253.992)"/></g></g></g><g fill="#FF3847"><g><g><path d="M 16.984375 0.640625 C 12.265625 0.640625 8.546875 -0.601562 5.828125 -3.09375 C 3.117188 -5.59375 1.765625 -8.988281 1.765625 -13.28125 C 1.765625 -13.769531 1.820312 -14.601562 1.9375 -15.78125 L 5 -40.671875 C 5.582031 -45.660156 7.617188 -49.628906 11.109375 -52.578125 C 14.597656 -55.535156 18.921875 -57.015625 24.078125 -57.015625 C 28.742188 -57.015625 32.457031 -55.753906 35.21875 -53.234375 C 37.988281 -50.710938 39.375 -47.300781 39.375 -43 C 39.375 -42.414062 39.320312 -41.582031 39.21875 -40.5 L 38.890625 -37.84375 C 38.734375 -37.039062 38.28125 -36.640625 37.53125 -36.640625 L 25.203125 -36.640625 C 24.828125 -36.640625 24.546875 -36.742188 24.359375 -36.953125 C 24.171875 -37.171875 24.101562 -37.46875 24.15625 -37.84375 L 24.5625 -40.671875 C 24.664062 -41.691406 24.53125 -42.507812 24.15625 -43.125 C 23.78125 -43.738281 23.242188 -44.046875 22.546875 -44.046875 C 21.796875 -44.046875 21.148438 -43.738281 20.609375 -43.125 C 20.078125 -42.507812 19.757812 -41.691406 19.65625 -40.671875 L 16.59375 -15.703125 C 16.476562 -14.679688 16.609375 -13.863281 16.984375 -13.25 C 17.367188 -12.632812 17.910156 -12.328125 18.609375 -12.328125 C 19.359375 -12.328125 19.988281 -12.632812 20.5 -13.25 C 21.007812 -13.863281 21.316406 -14.679688 21.421875 -15.703125 L 21.984375 -19.734375 C 21.984375 -20.003906 21.847656 -20.140625 21.578125 -20.140625 L 20.9375 -20.140625 C 20.5625 -20.140625 20.28125 -20.242188 20.09375 -20.453125 C 19.90625 -20.671875 19.835938 -20.96875 19.890625 -21.34375 L 21.015625 -30.609375 C 21.066406 -30.984375 21.210938 -31.273438 21.453125 -31.484375 C 21.703125 -31.703125 21.988281 -31.8125 22.3125 -31.8125 L 36.96875 -31.8125 C 37.34375 -31.8125 37.625 -31.703125 37.8125 -31.484375 C 38 -31.273438 38.066406 -30.984375 38.015625 -30.609375 L 36.15625 -15.78125 C 35.5625 -10.789062 33.503906 -6.804688 29.984375 -3.828125 C 26.472656 -0.847656 22.140625 0.640625 16.984375 0.640625 Z M 16.984375 0.640625" transform="translate(90.54 251.836)"/></g></g></g><g fill="#FF3847"><g><g><path d="M 25.046875 0 C 24.296875 0 23.945312 -0.375 24 -1.125 L 23.84375 -7.25 C 23.894531 -7.351562 23.863281 -7.445312 23.75 -7.53125 C 23.644531 -7.613281 23.539062 -7.65625 23.4375 -7.65625 L 16.421875 -7.65625 C 16.160156 -7.65625 15.972656 -7.519531 15.859375 -7.25 L 14.328125 -1.125 C 14.171875 -0.375 13.71875 0 12.96875 0 L 0.71875 0 C -0.0820312 0 -0.375 -0.425781 -0.15625 -1.28125 L 17.5625 -55.328125 C 17.769531 -56.023438 18.25 -56.375 19 -56.375 L 33.265625 -56.375 C 34.015625 -56.375 34.414062 -56.023438 34.46875 -55.328125 L 38.890625 -1.28125 L 38.890625 -1.125 C 38.890625 -0.375 38.488281 0 37.6875 0 Z M 19.171875 -19.65625 C 19.054688 -19.382812 19.132812 -19.25 19.40625 -19.25 L 23.1875 -19.25 C 23.351562 -19.25 23.488281 -19.382812 23.59375 -19.65625 L 23.28125 -34.546875 C 23.28125 -34.765625 23.210938 -34.859375 23.078125 -34.828125 C 22.941406 -34.804688 22.875 -34.710938 22.875 -34.546875 Z M 19.171875 -19.65625" transform="translate(127.906 251.836)"/></g></g></g><g fill="#FF3847"><g><g><path d="M 33.09375 -55.484375 C 33.414062 -56.078125 33.898438 -56.375 34.546875 -56.375 L 46.78125 -56.375 C 47.101562 -56.375 47.359375 -56.265625 47.546875 -56.046875 C 47.734375 -55.835938 47.800781 -55.539062 47.75 -55.15625 L 41.15625 -1.203125 C 41.101562 -0.828125 40.953125 -0.53125 40.703125 -0.3125 C 40.460938 -0.101562 40.179688 0 39.859375 0 L 27.46875 0 C 27.144531 0 26.890625 -0.101562 26.703125 -0.3125 C 26.515625 -0.53125 26.445312 -0.828125 26.5 -1.203125 L 30.515625 -34.140625 C 30.578125 -34.359375 30.539062 -34.476562 30.40625 -34.5 C 30.269531 -34.53125 30.144531 -34.46875 30.03125 -34.3125 L 24.5625 -26.421875 L 23.59375 -24.96875 L 23.515625 -24.96875 L 19.40625 -34.3125 C 19.351562 -34.46875 19.269531 -34.53125 19.15625 -34.5 C 19.050781 -34.476562 18.972656 -34.359375 18.921875 -34.140625 L 14.890625 -1.203125 C 14.835938 -0.828125 14.703125 -0.53125 14.484375 -0.3125 C 14.273438 -0.101562 13.984375 0 13.609375 0 L 1.28125 0 C 0.90625 0 0.625 -0.101562 0.4375 -0.3125 C 0.25 -0.53125 0.179688 -0.828125 0.234375 -1.203125 L 6.84375 -55.15625 C 6.894531 -55.539062 7.039062 -55.835938 7.28125 -56.046875 C 7.53125 -56.265625 7.816406 -56.375 8.140625 -56.375 L 20.375 -56.375 C 21.019531 -56.375 21.445312 -56.078125 21.65625 -55.484375 L 25.9375 -45.015625 C 26.039062 -44.796875 26.203125 -44.796875 26.421875 -45.015625 Z M 33.09375 -55.484375" transform="translate(169.378 251.836)"/></g></g></g><g fill="#FF3847"><g><g><path d="M 37.203125 -44.609375 C 37.148438 -44.234375 37.003906 -43.9375 36.765625 -43.71875 C 36.523438 -43.507812 36.21875 -43.40625 35.84375 -43.40625 L 20.859375 -43.40625 C 20.585938 -43.40625 20.453125 -43.269531 20.453125 -43 L 19.484375 -35.109375 C 19.378906 -34.835938 19.488281 -34.703125 19.8125 -34.703125 L 27.625 -34.703125 C 28 -34.703125 28.28125 -34.59375 28.46875 -34.375 C 28.65625 -34.164062 28.722656 -33.875 28.671875 -33.5 L 27.375 -22.953125 C 27.21875 -22.148438 26.765625 -21.75 26.015625 -21.75 L 18.203125 -21.75 C 17.929688 -21.75 17.796875 -21.613281 17.796875 -21.34375 L 16.828125 -13.375 C 16.722656 -13.101562 16.832031 -12.96875 17.15625 -12.96875 L 32.125 -12.96875 C 32.507812 -12.96875 32.796875 -12.859375 32.984375 -12.640625 C 33.171875 -12.429688 33.234375 -12.132812 33.171875 -11.75 L 31.890625 -1.203125 C 31.835938 -0.828125 31.6875 -0.53125 31.4375 -0.3125 C 31.195312 -0.101562 30.890625 0 30.515625 0 L 1.609375 0 C 1.285156 0 1.03125 -0.101562 0.84375 -0.3125 C 0.65625 -0.53125 0.585938 -0.828125 0.640625 -1.203125 L 7.25 -55.15625 C 7.300781 -55.539062 7.445312 -55.835938 7.6875 -56.046875 C 7.925781 -56.265625 8.207031 -56.375 8.53125 -56.375 L 37.453125 -56.375 C 37.828125 -56.375 38.109375 -56.265625 38.296875 -56.046875 C 38.484375 -55.835938 38.550781 -55.539062 38.5 -55.15625 Z M 37.203125 -44.609375" transform="translate(213.59 251.836)"/></g></g></g><g fill="#FF3847"><g><g><path d="M 16.75 0.640625 C 12.132812 0.640625 8.484375 -0.550781 5.796875 -2.9375 C 3.109375 -5.320312 1.765625 -8.503906 1.765625 -12.484375 C 1.765625 -12.859375 1.820312 -13.53125 1.9375 -14.5 L 2.25 -16.984375 C 2.300781 -17.367188 2.445312 -17.664062 2.6875 -17.875 C 2.9375 -18.09375 3.222656 -18.203125 3.546875 -18.203125 L 15.78125 -18.203125 C 16.101562 -18.203125 16.359375 -18.09375 16.546875 -17.875 C 16.734375 -17.664062 16.800781 -17.367188 16.75 -16.984375 L 16.59375 -15.21875 C 16.476562 -14.363281 16.582031 -13.664062 16.90625 -13.125 C 17.226562 -12.59375 17.710938 -12.328125 18.359375 -12.328125 C 19.054688 -12.328125 19.644531 -12.617188 20.125 -13.203125 C 20.613281 -13.796875 20.859375 -14.519531 20.859375 -15.375 C 20.859375 -16.1875 20.46875 -17.019531 19.6875 -17.875 C 18.90625 -18.738281 17.414062 -20.054688 15.21875 -21.828125 C 13.070312 -23.597656 11.300781 -25.164062 9.90625 -26.53125 C 8.507812 -27.90625 7.300781 -29.597656 6.28125 -31.609375 C 5.257812 -33.617188 4.75 -35.914062 4.75 -38.5 C 4.75 -38.976562 4.800781 -39.804688 4.90625 -40.984375 C 5.5 -45.765625 7.484375 -49.628906 10.859375 -52.578125 C 14.242188 -55.535156 18.460938 -57.015625 23.515625 -57.015625 C 28.128906 -57.015625 31.765625 -55.78125 34.421875 -53.3125 C 37.078125 -50.84375 38.40625 -47.515625 38.40625 -43.328125 C 38.40625 -42.835938 38.351562 -42.054688 38.25 -40.984375 L 38.015625 -39.21875 C 37.960938 -38.84375 37.8125 -38.546875 37.5625 -38.328125 C 37.320312 -38.117188 37.039062 -38.015625 36.71875 -38.015625 L 24.5625 -38.015625 C 24.238281 -38.015625 23.984375 -38.117188 23.796875 -38.328125 C 23.609375 -38.546875 23.539062 -38.84375 23.59375 -39.21875 L 23.84375 -41.3125 C 23.894531 -42.113281 23.742188 -42.769531 23.390625 -43.28125 C 23.046875 -43.789062 22.550781 -44.046875 21.90625 -44.046875 C 21.15625 -44.046875 20.535156 -43.722656 20.046875 -43.078125 C 19.566406 -42.441406 19.328125 -41.582031 19.328125 -40.5 C 19.328125 -39.59375 19.703125 -38.65625 20.453125 -37.6875 C 21.203125 -36.71875 22.597656 -35.375 24.640625 -33.65625 C 27.378906 -31.351562 29.472656 -29.488281 30.921875 -28.0625 C 32.367188 -26.644531 33.507812 -25.085938 34.34375 -23.390625 C 35.175781 -21.703125 35.59375 -19.785156 35.59375 -17.640625 C 35.59375 -17.203125 35.539062 -16.445312 35.4375 -15.375 C 34.789062 -10.488281 32.757812 -6.597656 29.34375 -3.703125 C 25.9375 -0.804688 21.738281 0.640625 16.75 0.640625 Z M 16.75 0.640625" transform="translate(248.298 251.836)"/></g></g></g></svg>
