<svg xmlns="http://www.w3.org/2000/svg" width="375" viewBox="0 0 375 375" height="375" version="1.0"><g fill="#D32F23" fill-opacity=".42"><g><g><path d="M 17.109375 0 C 16.585938 0 16.347656 -0.253906 16.390625 -0.765625 L 16.28125 -4.953125 C 16.3125 -5.023438 16.289062 -5.085938 16.21875 -5.140625 C 16.144531 -5.191406 16.070312 -5.21875 16 -5.21875 L 11.21875 -5.21875 C 11.03125 -5.21875 10.898438 -5.128906 10.828125 -4.953125 L 9.796875 -0.765625 C 9.679688 -0.253906 9.367188 0 8.859375 0 L 0.5 0 C -0.0507812 0 -0.253906 -0.289062 -0.109375 -0.875 L 11.984375 -37.78125 C 12.128906 -38.257812 12.460938 -38.5 12.984375 -38.5 L 22.71875 -38.5 C 23.226562 -38.5 23.503906 -38.257812 23.546875 -37.78125 L 26.5625 -0.875 L 26.5625 -0.765625 C 26.5625 -0.253906 26.285156 0 25.734375 0 Z M 13.09375 -13.421875 C 13.019531 -13.234375 13.070312 -13.140625 13.25 -13.140625 L 15.84375 -13.140625 C 15.945312 -13.140625 16.035156 -13.234375 16.109375 -13.421875 L 15.890625 -23.59375 C 15.890625 -23.738281 15.84375 -23.800781 15.75 -23.78125 C 15.664062 -23.769531 15.625 -23.707031 15.625 -23.59375 Z M 13.09375 -13.421875" transform="translate(40.236 210.722)"/></g></g></g><g fill="#D32F23" fill-opacity=".42"><g><g><path d="M 14.90625 0 C 14.46875 0 14.210938 -0.238281 14.140625 -0.71875 L 12.546875 -14.578125 C 12.546875 -14.722656 12.488281 -14.796875 12.375 -14.796875 C 12.226562 -14.796875 12.15625 -14.703125 12.15625 -14.515625 L 10.453125 -0.828125 C 10.410156 -0.566406 10.304688 -0.363281 10.140625 -0.21875 C 9.984375 -0.0703125 9.789062 0 9.5625 0 L 1.09375 0 C 0.875 0 0.703125 -0.0703125 0.578125 -0.21875 C 0.453125 -0.363281 0.40625 -0.566406 0.4375 -0.828125 L 4.953125 -37.671875 C 4.984375 -37.929688 5.082031 -38.132812 5.25 -38.28125 C 5.414062 -38.425781 5.609375 -38.5 5.828125 -38.5 L 17.875 -38.5 C 20.8125 -38.5 23.128906 -37.5625 24.828125 -35.6875 C 26.535156 -33.820312 27.390625 -31.347656 27.390625 -28.265625 C 27.390625 -27.390625 27.351562 -26.710938 27.28125 -26.234375 C 27.019531 -24.210938 26.445312 -22.40625 25.5625 -20.8125 C 24.6875 -19.21875 23.554688 -17.925781 22.171875 -16.9375 C 21.984375 -16.832031 21.925781 -16.707031 22 -16.5625 L 24.359375 -0.9375 L 24.359375 -0.71875 C 24.359375 -0.5 24.285156 -0.320312 24.140625 -0.1875 C 23.992188 -0.0625 23.8125 0 23.59375 0 Z M 14.25 -29.640625 C 14.0625 -29.640625 13.96875 -29.550781 13.96875 -29.375 L 13.140625 -22.9375 C 13.140625 -22.75 13.234375 -22.65625 13.421875 -22.65625 L 14.140625 -22.65625 C 15.015625 -22.65625 15.753906 -23.039062 16.359375 -23.8125 C 16.960938 -24.582031 17.265625 -25.644531 17.265625 -27 C 17.265625 -27.84375 17.0625 -28.492188 16.65625 -28.953125 C 16.257812 -29.410156 15.710938 -29.640625 15.015625 -29.640625 Z M 14.25 -29.640625" transform="translate(68.56 210.722)"/></g></g></g><g fill="#D32F23" fill-opacity=".42"><g><g><path d="M 11.4375 0.4375 C 8.28125 0.4375 5.785156 -0.375 3.953125 -2 C 2.117188 -3.632812 1.203125 -5.8125 1.203125 -8.53125 C 1.203125 -8.78125 1.238281 -9.238281 1.3125 -9.90625 L 1.546875 -11.609375 C 1.578125 -11.859375 1.675781 -12.054688 1.84375 -12.203125 C 2.007812 -12.359375 2.203125 -12.4375 2.421875 -12.4375 L 10.78125 -12.4375 C 11 -12.4375 11.171875 -12.359375 11.296875 -12.203125 C 11.429688 -12.054688 11.476562 -11.859375 11.4375 -11.609375 L 11.328125 -10.390625 C 11.253906 -9.804688 11.328125 -9.332031 11.546875 -8.96875 C 11.765625 -8.601562 12.097656 -8.421875 12.546875 -8.421875 C 13.015625 -8.421875 13.414062 -8.617188 13.75 -9.015625 C 14.082031 -9.421875 14.25 -9.914062 14.25 -10.5 C 14.25 -11.050781 13.984375 -11.617188 13.453125 -12.203125 C 12.921875 -12.796875 11.898438 -13.695312 10.390625 -14.90625 C 8.921875 -16.113281 7.707031 -17.1875 6.75 -18.125 C 5.800781 -19.0625 4.976562 -20.21875 4.28125 -21.59375 C 3.59375 -22.96875 3.25 -24.535156 3.25 -26.296875 C 3.25 -26.617188 3.285156 -27.1875 3.359375 -28 C 3.753906 -31.257812 5.109375 -33.894531 7.421875 -35.90625 C 9.734375 -37.925781 12.613281 -38.9375 16.0625 -38.9375 C 19.21875 -38.9375 21.703125 -38.09375 23.515625 -36.40625 C 25.328125 -34.71875 26.234375 -32.445312 26.234375 -29.59375 C 26.234375 -29.257812 26.195312 -28.726562 26.125 -28 L 25.953125 -26.78125 C 25.921875 -26.53125 25.820312 -26.328125 25.65625 -26.171875 C 25.488281 -26.023438 25.296875 -25.953125 25.078125 -25.953125 L 16.78125 -25.953125 C 16.550781 -25.953125 16.375 -26.023438 16.25 -26.171875 C 16.125 -26.328125 16.078125 -26.53125 16.109375 -26.78125 L 16.28125 -28.21875 C 16.3125 -28.769531 16.207031 -29.21875 15.96875 -29.5625 C 15.738281 -29.90625 15.398438 -30.078125 14.953125 -30.078125 C 14.441406 -30.078125 14.019531 -29.859375 13.6875 -29.421875 C 13.363281 -28.984375 13.203125 -28.398438 13.203125 -27.671875 C 13.203125 -27.046875 13.457031 -26.398438 13.96875 -25.734375 C 14.476562 -25.078125 15.429688 -24.160156 16.828125 -22.984375 C 18.703125 -21.410156 20.132812 -20.132812 21.125 -19.15625 C 22.113281 -18.1875 22.890625 -17.125 23.453125 -15.96875 C 24.023438 -14.820312 24.3125 -13.515625 24.3125 -12.046875 C 24.3125 -11.753906 24.273438 -11.238281 24.203125 -10.5 C 23.765625 -7.164062 22.378906 -4.507812 20.046875 -2.53125 C 17.722656 -0.550781 14.851562 0.4375 11.4375 0.4375 Z M 11.4375 0.4375" transform="translate(94.683 210.722)"/></g></g></g><g fill="#D32F23" fill-opacity=".42"><g><g><path d="M 25.40625 -30.46875 C 25.375 -30.207031 25.273438 -30.003906 25.109375 -29.859375 C 24.941406 -29.710938 24.726562 -29.640625 24.46875 -29.640625 L 14.25 -29.640625 C 14.0625 -29.640625 13.96875 -29.550781 13.96875 -29.375 L 13.3125 -23.984375 C 13.238281 -23.796875 13.3125 -23.703125 13.53125 -23.703125 L 18.859375 -23.703125 C 19.117188 -23.703125 19.3125 -23.628906 19.4375 -23.484375 C 19.570312 -23.335938 19.617188 -23.132812 19.578125 -22.875 L 18.703125 -15.671875 C 18.585938 -15.117188 18.273438 -14.84375 17.765625 -14.84375 L 12.4375 -14.84375 C 12.25 -14.84375 12.15625 -14.753906 12.15625 -14.578125 L 11.5 -9.125 C 11.425781 -8.945312 11.5 -8.859375 11.71875 -8.859375 L 21.9375 -8.859375 C 22.195312 -8.859375 22.390625 -8.785156 22.515625 -8.640625 C 22.648438 -8.492188 22.695312 -8.289062 22.65625 -8.03125 L 21.78125 -0.828125 C 21.738281 -0.566406 21.632812 -0.363281 21.46875 -0.21875 C 21.3125 -0.0703125 21.101562 0 20.84375 0 L 1.09375 0 C 0.875 0 0.703125 -0.0703125 0.578125 -0.21875 C 0.453125 -0.363281 0.40625 -0.566406 0.4375 -0.828125 L 4.953125 -37.671875 C 4.984375 -37.929688 5.082031 -38.132812 5.25 -38.28125 C 5.414062 -38.425781 5.609375 -38.5 5.828125 -38.5 L 25.578125 -38.5 C 25.828125 -38.5 26.015625 -38.425781 26.140625 -38.28125 C 26.273438 -38.132812 26.328125 -37.929688 26.296875 -37.671875 Z M 25.40625 -30.46875" transform="translate(119.376 210.722)"/></g></g></g><g fill="#D32F23" fill-opacity=".42"><g><g><path d="M 20.40625 -37.671875 C 20.4375 -37.929688 20.535156 -38.132812 20.703125 -38.28125 C 20.867188 -38.425781 21.082031 -38.5 21.34375 -38.5 L 29.640625 -38.5 C 29.898438 -38.5 30.09375 -38.425781 30.21875 -38.28125 C 30.351562 -38.132812 30.398438 -37.929688 30.359375 -37.671875 L 25.796875 -0.828125 C 25.753906 -0.566406 25.660156 -0.363281 25.515625 -0.21875 C 25.367188 -0.0703125 25.171875 0 24.921875 0 L 15.40625 0 C 14.957031 0 14.695312 -0.238281 14.625 -0.71875 L 12.546875 -17.59375 C 12.546875 -17.707031 12.503906 -17.765625 12.421875 -17.765625 C 12.347656 -17.765625 12.3125 -17.707031 12.3125 -17.59375 L 10.34375 -0.828125 C 10.300781 -0.566406 10.195312 -0.363281 10.03125 -0.21875 C 9.875 -0.0703125 9.679688 0 9.453125 0 L 1.09375 0 C 0.875 0 0.703125 -0.0703125 0.578125 -0.21875 C 0.453125 -0.363281 0.40625 -0.566406 0.4375 -0.828125 L 4.953125 -37.671875 C 4.984375 -37.929688 5.082031 -38.132812 5.25 -38.28125 C 5.414062 -38.425781 5.609375 -38.5 5.828125 -38.5 L 15.234375 -38.5 C 15.671875 -38.5 15.925781 -38.257812 16 -37.78125 L 18.15625 -20.796875 C 18.15625 -20.679688 18.191406 -20.640625 18.265625 -20.671875 C 18.335938 -20.710938 18.390625 -20.769531 18.421875 -20.84375 Z M 20.40625 -37.671875" transform="translate(143.079 210.722)"/></g></g></g><g fill="#D32F23" fill-opacity=".42"><g><g><path d="M 25.40625 -30.46875 C 25.375 -30.207031 25.273438 -30.003906 25.109375 -29.859375 C 24.941406 -29.710938 24.726562 -29.640625 24.46875 -29.640625 L 14.25 -29.640625 C 14.0625 -29.640625 13.96875 -29.550781 13.96875 -29.375 L 13.3125 -23.984375 C 13.238281 -23.796875 13.3125 -23.703125 13.53125 -23.703125 L 18.859375 -23.703125 C 19.117188 -23.703125 19.3125 -23.628906 19.4375 -23.484375 C 19.570312 -23.335938 19.617188 -23.132812 19.578125 -22.875 L 18.703125 -15.671875 C 18.585938 -15.117188 18.273438 -14.84375 17.765625 -14.84375 L 12.4375 -14.84375 C 12.25 -14.84375 12.15625 -14.753906 12.15625 -14.578125 L 11.5 -9.125 C 11.425781 -8.945312 11.5 -8.859375 11.71875 -8.859375 L 21.9375 -8.859375 C 22.195312 -8.859375 22.390625 -8.785156 22.515625 -8.640625 C 22.648438 -8.492188 22.695312 -8.289062 22.65625 -8.03125 L 21.78125 -0.828125 C 21.738281 -0.566406 21.632812 -0.363281 21.46875 -0.21875 C 21.3125 -0.0703125 21.101562 0 20.84375 0 L 1.09375 0 C 0.875 0 0.703125 -0.0703125 0.578125 -0.21875 C 0.453125 -0.363281 0.40625 -0.566406 0.4375 -0.828125 L 4.953125 -37.671875 C 4.984375 -37.929688 5.082031 -38.132812 5.25 -38.28125 C 5.414062 -38.425781 5.609375 -38.5 5.828125 -38.5 L 25.578125 -38.5 C 25.828125 -38.5 26.015625 -38.425781 26.140625 -38.28125 C 26.273438 -38.132812 26.328125 -37.929688 26.296875 -37.671875 Z M 25.40625 -30.46875" transform="translate(171.237 210.722)"/></g></g></g><g fill="#75C7FB"><g><g><path d="M 17.109375 0 C 16.585938 0 16.347656 -0.253906 16.390625 -0.765625 L 16.28125 -4.953125 C 16.3125 -5.023438 16.289062 -5.085938 16.21875 -5.140625 C 16.144531 -5.191406 16.070312 -5.21875 16 -5.21875 L 11.21875 -5.21875 C 11.03125 -5.21875 10.898438 -5.128906 10.828125 -4.953125 L 9.796875 -0.765625 C 9.679688 -0.253906 9.367188 0 8.859375 0 L 0.5 0 C -0.0507812 0 -0.253906 -0.289062 -0.109375 -0.875 L 11.984375 -37.78125 C 12.128906 -38.257812 12.460938 -38.5 12.984375 -38.5 L 22.71875 -38.5 C 23.226562 -38.5 23.503906 -38.257812 23.546875 -37.78125 L 26.5625 -0.875 L 26.5625 -0.765625 C 26.5625 -0.253906 26.285156 0 25.734375 0 Z M 13.09375 -13.421875 C 13.019531 -13.234375 13.070312 -13.140625 13.25 -13.140625 L 15.84375 -13.140625 C 15.945312 -13.140625 16.035156 -13.234375 16.109375 -13.421875 L 15.890625 -23.59375 C 15.890625 -23.738281 15.84375 -23.800781 15.75 -23.78125 C 15.664062 -23.769531 15.625 -23.707031 15.625 -23.59375 Z M 13.09375 -13.421875" transform="translate(38.602 209.25)"/></g></g></g><g fill="#75C7FB"><g><g><path d="M 14.90625 0 C 14.46875 0 14.210938 -0.238281 14.140625 -0.71875 L 12.546875 -14.578125 C 12.546875 -14.722656 12.488281 -14.796875 12.375 -14.796875 C 12.226562 -14.796875 12.15625 -14.703125 12.15625 -14.515625 L 10.453125 -0.828125 C 10.410156 -0.566406 10.304688 -0.363281 10.140625 -0.21875 C 9.984375 -0.0703125 9.789062 0 9.5625 0 L 1.09375 0 C 0.875 0 0.703125 -0.0703125 0.578125 -0.21875 C 0.453125 -0.363281 0.40625 -0.566406 0.4375 -0.828125 L 4.953125 -37.671875 C 4.984375 -37.929688 5.082031 -38.132812 5.25 -38.28125 C 5.414062 -38.425781 5.609375 -38.5 5.828125 -38.5 L 17.875 -38.5 C 20.8125 -38.5 23.128906 -37.5625 24.828125 -35.6875 C 26.535156 -33.820312 27.390625 -31.347656 27.390625 -28.265625 C 27.390625 -27.390625 27.351562 -26.710938 27.28125 -26.234375 C 27.019531 -24.210938 26.445312 -22.40625 25.5625 -20.8125 C 24.6875 -19.21875 23.554688 -17.925781 22.171875 -16.9375 C 21.984375 -16.832031 21.925781 -16.707031 22 -16.5625 L 24.359375 -0.9375 L 24.359375 -0.71875 C 24.359375 -0.5 24.285156 -0.320312 24.140625 -0.1875 C 23.992188 -0.0625 23.8125 0 23.59375 0 Z M 14.25 -29.640625 C 14.0625 -29.640625 13.96875 -29.550781 13.96875 -29.375 L 13.140625 -22.9375 C 13.140625 -22.75 13.234375 -22.65625 13.421875 -22.65625 L 14.140625 -22.65625 C 15.015625 -22.65625 15.753906 -23.039062 16.359375 -23.8125 C 16.960938 -24.582031 17.265625 -25.644531 17.265625 -27 C 17.265625 -27.84375 17.0625 -28.492188 16.65625 -28.953125 C 16.257812 -29.410156 15.710938 -29.640625 15.015625 -29.640625 Z M 14.25 -29.640625" transform="translate(66.925 209.25)"/></g></g></g><g fill="#75C7FB"><g><g><path d="M 11.4375 0.4375 C 8.28125 0.4375 5.785156 -0.375 3.953125 -2 C 2.117188 -3.632812 1.203125 -5.8125 1.203125 -8.53125 C 1.203125 -8.78125 1.238281 -9.238281 1.3125 -9.90625 L 1.546875 -11.609375 C 1.578125 -11.859375 1.675781 -12.054688 1.84375 -12.203125 C 2.007812 -12.359375 2.203125 -12.4375 2.421875 -12.4375 L 10.78125 -12.4375 C 11 -12.4375 11.171875 -12.359375 11.296875 -12.203125 C 11.429688 -12.054688 11.476562 -11.859375 11.4375 -11.609375 L 11.328125 -10.390625 C 11.253906 -9.804688 11.328125 -9.332031 11.546875 -8.96875 C 11.765625 -8.601562 12.097656 -8.421875 12.546875 -8.421875 C 13.015625 -8.421875 13.414062 -8.617188 13.75 -9.015625 C 14.082031 -9.421875 14.25 -9.914062 14.25 -10.5 C 14.25 -11.050781 13.984375 -11.617188 13.453125 -12.203125 C 12.921875 -12.796875 11.898438 -13.695312 10.390625 -14.90625 C 8.921875 -16.113281 7.707031 -17.1875 6.75 -18.125 C 5.800781 -19.0625 4.976562 -20.21875 4.28125 -21.59375 C 3.59375 -22.96875 3.25 -24.535156 3.25 -26.296875 C 3.25 -26.617188 3.285156 -27.1875 3.359375 -28 C 3.753906 -31.257812 5.109375 -33.894531 7.421875 -35.90625 C 9.734375 -37.925781 12.613281 -38.9375 16.0625 -38.9375 C 19.21875 -38.9375 21.703125 -38.09375 23.515625 -36.40625 C 25.328125 -34.71875 26.234375 -32.445312 26.234375 -29.59375 C 26.234375 -29.257812 26.195312 -28.726562 26.125 -28 L 25.953125 -26.78125 C 25.921875 -26.53125 25.820312 -26.328125 25.65625 -26.171875 C 25.488281 -26.023438 25.296875 -25.953125 25.078125 -25.953125 L 16.78125 -25.953125 C 16.550781 -25.953125 16.375 -26.023438 16.25 -26.171875 C 16.125 -26.328125 16.078125 -26.53125 16.109375 -26.78125 L 16.28125 -28.21875 C 16.3125 -28.769531 16.207031 -29.21875 15.96875 -29.5625 C 15.738281 -29.90625 15.398438 -30.078125 14.953125 -30.078125 C 14.441406 -30.078125 14.019531 -29.859375 13.6875 -29.421875 C 13.363281 -28.984375 13.203125 -28.398438 13.203125 -27.671875 C 13.203125 -27.046875 13.457031 -26.398438 13.96875 -25.734375 C 14.476562 -25.078125 15.429688 -24.160156 16.828125 -22.984375 C 18.703125 -21.410156 20.132812 -20.132812 21.125 -19.15625 C 22.113281 -18.1875 22.890625 -17.125 23.453125 -15.96875 C 24.023438 -14.820312 24.3125 -13.515625 24.3125 -12.046875 C 24.3125 -11.753906 24.273438 -11.238281 24.203125 -10.5 C 23.765625 -7.164062 22.378906 -4.507812 20.046875 -2.53125 C 17.722656 -0.550781 14.851562 0.4375 11.4375 0.4375 Z M 11.4375 0.4375" transform="translate(93.048 209.25)"/></g></g></g><g fill="#75C7FB"><g><g><path d="M 25.40625 -30.46875 C 25.375 -30.207031 25.273438 -30.003906 25.109375 -29.859375 C 24.941406 -29.710938 24.726562 -29.640625 24.46875 -29.640625 L 14.25 -29.640625 C 14.0625 -29.640625 13.96875 -29.550781 13.96875 -29.375 L 13.3125 -23.984375 C 13.238281 -23.796875 13.3125 -23.703125 13.53125 -23.703125 L 18.859375 -23.703125 C 19.117188 -23.703125 19.3125 -23.628906 19.4375 -23.484375 C 19.570312 -23.335938 19.617188 -23.132812 19.578125 -22.875 L 18.703125 -15.671875 C 18.585938 -15.117188 18.273438 -14.84375 17.765625 -14.84375 L 12.4375 -14.84375 C 12.25 -14.84375 12.15625 -14.753906 12.15625 -14.578125 L 11.5 -9.125 C 11.425781 -8.945312 11.5 -8.859375 11.71875 -8.859375 L 21.9375 -8.859375 C 22.195312 -8.859375 22.390625 -8.785156 22.515625 -8.640625 C 22.648438 -8.492188 22.695312 -8.289062 22.65625 -8.03125 L 21.78125 -0.828125 C 21.738281 -0.566406 21.632812 -0.363281 21.46875 -0.21875 C 21.3125 -0.0703125 21.101562 0 20.84375 0 L 1.09375 0 C 0.875 0 0.703125 -0.0703125 0.578125 -0.21875 C 0.453125 -0.363281 0.40625 -0.566406 0.4375 -0.828125 L 4.953125 -37.671875 C 4.984375 -37.929688 5.082031 -38.132812 5.25 -38.28125 C 5.414062 -38.425781 5.609375 -38.5 5.828125 -38.5 L 25.578125 -38.5 C 25.828125 -38.5 26.015625 -38.425781 26.140625 -38.28125 C 26.273438 -38.132812 26.328125 -37.929688 26.296875 -37.671875 Z M 25.40625 -30.46875" transform="translate(117.74 209.25)"/></g></g></g><g fill="#75C7FB"><g><g><path d="M 20.40625 -37.671875 C 20.4375 -37.929688 20.535156 -38.132812 20.703125 -38.28125 C 20.867188 -38.425781 21.082031 -38.5 21.34375 -38.5 L 29.640625 -38.5 C 29.898438 -38.5 30.09375 -38.425781 30.21875 -38.28125 C 30.351562 -38.132812 30.398438 -37.929688 30.359375 -37.671875 L 25.796875 -0.828125 C 25.753906 -0.566406 25.660156 -0.363281 25.515625 -0.21875 C 25.367188 -0.0703125 25.171875 0 24.921875 0 L 15.40625 0 C 14.957031 0 14.695312 -0.238281 14.625 -0.71875 L 12.546875 -17.59375 C 12.546875 -17.707031 12.503906 -17.765625 12.421875 -17.765625 C 12.347656 -17.765625 12.3125 -17.707031 12.3125 -17.59375 L 10.34375 -0.828125 C 10.300781 -0.566406 10.195312 -0.363281 10.03125 -0.21875 C 9.875 -0.0703125 9.679688 0 9.453125 0 L 1.09375 0 C 0.875 0 0.703125 -0.0703125 0.578125 -0.21875 C 0.453125 -0.363281 0.40625 -0.566406 0.4375 -0.828125 L 4.953125 -37.671875 C 4.984375 -37.929688 5.082031 -38.132812 5.25 -38.28125 C 5.414062 -38.425781 5.609375 -38.5 5.828125 -38.5 L 15.234375 -38.5 C 15.671875 -38.5 15.925781 -38.257812 16 -37.78125 L 18.15625 -20.796875 C 18.15625 -20.679688 18.191406 -20.640625 18.265625 -20.671875 C 18.335938 -20.710938 18.390625 -20.769531 18.421875 -20.84375 Z M 20.40625 -37.671875" transform="translate(141.444 209.25)"/></g></g></g><g fill="#75C7FB"><g><g><path d="M 25.40625 -30.46875 C 25.375 -30.207031 25.273438 -30.003906 25.109375 -29.859375 C 24.941406 -29.710938 24.726562 -29.640625 24.46875 -29.640625 L 14.25 -29.640625 C 14.0625 -29.640625 13.96875 -29.550781 13.96875 -29.375 L 13.3125 -23.984375 C 13.238281 -23.796875 13.3125 -23.703125 13.53125 -23.703125 L 18.859375 -23.703125 C 19.117188 -23.703125 19.3125 -23.628906 19.4375 -23.484375 C 19.570312 -23.335938 19.617188 -23.132812 19.578125 -22.875 L 18.703125 -15.671875 C 18.585938 -15.117188 18.273438 -14.84375 17.765625 -14.84375 L 12.4375 -14.84375 C 12.25 -14.84375 12.15625 -14.753906 12.15625 -14.578125 L 11.5 -9.125 C 11.425781 -8.945312 11.5 -8.859375 11.71875 -8.859375 L 21.9375 -8.859375 C 22.195312 -8.859375 22.390625 -8.785156 22.515625 -8.640625 C 22.648438 -8.492188 22.695312 -8.289062 22.65625 -8.03125 L 21.78125 -0.828125 C 21.738281 -0.566406 21.632812 -0.363281 21.46875 -0.21875 C 21.3125 -0.0703125 21.101562 0 20.84375 0 L 1.09375 0 C 0.875 0 0.703125 -0.0703125 0.578125 -0.21875 C 0.453125 -0.363281 0.40625 -0.566406 0.4375 -0.828125 L 4.953125 -37.671875 C 4.984375 -37.929688 5.082031 -38.132812 5.25 -38.28125 C 5.414062 -38.425781 5.609375 -38.5 5.828125 -38.5 L 25.578125 -38.5 C 25.828125 -38.5 26.015625 -38.425781 26.140625 -38.28125 C 26.273438 -38.132812 26.328125 -37.929688 26.296875 -37.671875 Z M 25.40625 -30.46875" transform="translate(169.602 209.25)"/></g></g></g><g fill="#D32F23" fill-opacity=".42"><g><g><path d="M 11.609375 0.4375 C 8.378906 0.4375 5.835938 -0.410156 3.984375 -2.109375 C 2.128906 -3.816406 1.203125 -6.140625 1.203125 -9.078125 C 1.203125 -9.398438 1.238281 -9.96875 1.3125 -10.78125 L 3.40625 -27.78125 C 3.8125 -31.1875 5.207031 -33.894531 7.59375 -35.90625 C 9.976562 -37.925781 12.925781 -38.9375 16.4375 -38.9375 C 19.632812 -38.9375 22.175781 -38.070312 24.0625 -36.34375 C 25.945312 -34.625 26.890625 -32.300781 26.890625 -29.375 C 26.890625 -28.96875 26.851562 -28.398438 26.78125 -27.671875 L 26.5625 -25.84375 C 26.457031 -25.300781 26.144531 -25.03125 25.625 -25.03125 L 17.21875 -25.03125 C 16.957031 -25.03125 16.757812 -25.101562 16.625 -25.25 C 16.5 -25.394531 16.457031 -25.59375 16.5 -25.84375 L 16.78125 -27.78125 C 16.851562 -28.46875 16.757812 -29.019531 16.5 -29.4375 C 16.238281 -29.863281 15.875 -30.078125 15.40625 -30.078125 C 14.882812 -30.078125 14.441406 -29.863281 14.078125 -29.4375 C 13.710938 -29.019531 13.492188 -28.46875 13.421875 -27.78125 L 11.328125 -10.71875 C 11.253906 -10.03125 11.34375 -9.472656 11.59375 -9.046875 C 11.851562 -8.628906 12.222656 -8.421875 12.703125 -8.421875 C 13.210938 -8.421875 13.640625 -8.628906 13.984375 -9.046875 C 14.335938 -9.472656 14.550781 -10.03125 14.625 -10.71875 L 15.015625 -13.46875 C 15.015625 -13.65625 14.921875 -13.75 14.734375 -13.75 L 14.296875 -13.75 C 14.046875 -13.75 13.851562 -13.820312 13.71875 -13.96875 C 13.59375 -14.113281 13.546875 -14.316406 13.578125 -14.578125 L 14.359375 -20.90625 C 14.390625 -21.15625 14.488281 -21.351562 14.65625 -21.5 C 14.820312 -21.644531 15.015625 -21.71875 15.234375 -21.71875 L 25.25 -21.71875 C 25.5 -21.71875 25.6875 -21.644531 25.8125 -21.5 C 25.945312 -21.351562 25.992188 -21.15625 25.953125 -20.90625 L 24.6875 -10.78125 C 24.289062 -7.375 22.890625 -4.648438 20.484375 -2.609375 C 18.085938 -0.578125 15.128906 0.4375 11.609375 0.4375 Z M 11.609375 0.4375" transform="translate(205.6 210.722)"/></g></g></g><g fill="#D32F23" fill-opacity=".42"><g><g><path d="M 17.109375 0 C 16.585938 0 16.347656 -0.253906 16.390625 -0.765625 L 16.28125 -4.953125 C 16.3125 -5.023438 16.289062 -5.085938 16.21875 -5.140625 C 16.144531 -5.191406 16.070312 -5.21875 16 -5.21875 L 11.21875 -5.21875 C 11.03125 -5.21875 10.898438 -5.128906 10.828125 -4.953125 L 9.796875 -0.765625 C 9.679688 -0.253906 9.367188 0 8.859375 0 L 0.5 0 C -0.0507812 0 -0.253906 -0.289062 -0.109375 -0.875 L 11.984375 -37.78125 C 12.128906 -38.257812 12.460938 -38.5 12.984375 -38.5 L 22.71875 -38.5 C 23.226562 -38.5 23.503906 -38.257812 23.546875 -37.78125 L 26.5625 -0.875 L 26.5625 -0.765625 C 26.5625 -0.253906 26.285156 0 25.734375 0 Z M 13.09375 -13.421875 C 13.019531 -13.234375 13.070312 -13.140625 13.25 -13.140625 L 15.84375 -13.140625 C 15.945312 -13.140625 16.035156 -13.234375 16.109375 -13.421875 L 15.890625 -23.59375 C 15.890625 -23.738281 15.84375 -23.800781 15.75 -23.78125 C 15.664062 -23.769531 15.625 -23.707031 15.625 -23.59375 Z M 13.09375 -13.421875" transform="translate(231.118 210.722)"/></g></g></g><g fill="#D32F23" fill-opacity=".42"><g><g><path d="M 22.609375 -37.890625 C 22.828125 -38.296875 23.15625 -38.5 23.59375 -38.5 L 31.953125 -38.5 C 32.171875 -38.5 32.34375 -38.425781 32.46875 -38.28125 C 32.601562 -38.132812 32.648438 -37.929688 32.609375 -37.671875 L 28.109375 -0.828125 C 28.066406 -0.566406 27.960938 -0.363281 27.796875 -0.21875 C 27.640625 -0.0703125 27.445312 0 27.21875 0 L 18.75 0 C 18.53125 0 18.359375 -0.0703125 18.234375 -0.21875 C 18.109375 -0.363281 18.0625 -0.566406 18.09375 -0.828125 L 20.84375 -23.3125 C 20.882812 -23.46875 20.859375 -23.550781 20.765625 -23.5625 C 20.671875 -23.582031 20.585938 -23.539062 20.515625 -23.4375 L 16.78125 -18.046875 L 16.109375 -17.046875 L 16.0625 -17.046875 L 13.25 -23.4375 C 13.21875 -23.539062 13.164062 -23.582031 13.09375 -23.5625 C 13.019531 -23.550781 12.960938 -23.46875 12.921875 -23.3125 L 10.171875 -0.828125 C 10.140625 -0.566406 10.050781 -0.363281 9.90625 -0.21875 C 9.757812 -0.0703125 9.554688 0 9.296875 0 L 0.875 0 C 0.625 0 0.429688 -0.0703125 0.296875 -0.21875 C 0.171875 -0.363281 0.128906 -0.566406 0.171875 -0.828125 L 4.671875 -37.671875 C 4.710938 -37.929688 4.8125 -38.132812 4.96875 -38.28125 C 5.132812 -38.425781 5.332031 -38.5 5.5625 -38.5 L 13.921875 -38.5 C 14.359375 -38.5 14.648438 -38.296875 14.796875 -37.890625 L 17.703125 -30.75 C 17.773438 -30.601562 17.890625 -30.601562 18.046875 -30.75 Z M 22.609375 -37.890625" transform="translate(259.44 210.722)"/></g></g></g><g fill="#D32F23" fill-opacity=".42"><g><g><path d="M 25.40625 -30.46875 C 25.375 -30.207031 25.273438 -30.003906 25.109375 -29.859375 C 24.941406 -29.710938 24.726562 -29.640625 24.46875 -29.640625 L 14.25 -29.640625 C 14.0625 -29.640625 13.96875 -29.550781 13.96875 -29.375 L 13.3125 -23.984375 C 13.238281 -23.796875 13.3125 -23.703125 13.53125 -23.703125 L 18.859375 -23.703125 C 19.117188 -23.703125 19.3125 -23.628906 19.4375 -23.484375 C 19.570312 -23.335938 19.617188 -23.132812 19.578125 -22.875 L 18.703125 -15.671875 C 18.585938 -15.117188 18.273438 -14.84375 17.765625 -14.84375 L 12.4375 -14.84375 C 12.25 -14.84375 12.15625 -14.753906 12.15625 -14.578125 L 11.5 -9.125 C 11.425781 -8.945312 11.5 -8.859375 11.71875 -8.859375 L 21.9375 -8.859375 C 22.195312 -8.859375 22.390625 -8.785156 22.515625 -8.640625 C 22.648438 -8.492188 22.695312 -8.289062 22.65625 -8.03125 L 21.78125 -0.828125 C 21.738281 -0.566406 21.632812 -0.363281 21.46875 -0.21875 C 21.3125 -0.0703125 21.101562 0 20.84375 0 L 1.09375 0 C 0.875 0 0.703125 -0.0703125 0.578125 -0.21875 C 0.453125 -0.363281 0.40625 -0.566406 0.4375 -0.828125 L 4.953125 -37.671875 C 4.984375 -37.929688 5.082031 -38.132812 5.25 -38.28125 C 5.414062 -38.425781 5.609375 -38.5 5.828125 -38.5 L 25.578125 -38.5 C 25.828125 -38.5 26.015625 -38.425781 26.140625 -38.28125 C 26.273438 -38.132812 26.328125 -37.929688 26.296875 -37.671875 Z M 25.40625 -30.46875" transform="translate(289.634 210.722)"/></g></g></g><g fill="#D32F23" fill-opacity=".42"><g><g><path d="M 11.4375 0.4375 C 8.28125 0.4375 5.785156 -0.375 3.953125 -2 C 2.117188 -3.632812 1.203125 -5.8125 1.203125 -8.53125 C 1.203125 -8.78125 1.238281 -9.238281 1.3125 -9.90625 L 1.546875 -11.609375 C 1.578125 -11.859375 1.675781 -12.054688 1.84375 -12.203125 C 2.007812 -12.359375 2.203125 -12.4375 2.421875 -12.4375 L 10.78125 -12.4375 C 11 -12.4375 11.171875 -12.359375 11.296875 -12.203125 C 11.429688 -12.054688 11.476562 -11.859375 11.4375 -11.609375 L 11.328125 -10.390625 C 11.253906 -9.804688 11.328125 -9.332031 11.546875 -8.96875 C 11.765625 -8.601562 12.097656 -8.421875 12.546875 -8.421875 C 13.015625 -8.421875 13.414062 -8.617188 13.75 -9.015625 C 14.082031 -9.421875 14.25 -9.914062 14.25 -10.5 C 14.25 -11.050781 13.984375 -11.617188 13.453125 -12.203125 C 12.921875 -12.796875 11.898438 -13.695312 10.390625 -14.90625 C 8.921875 -16.113281 7.707031 -17.1875 6.75 -18.125 C 5.800781 -19.0625 4.976562 -20.21875 4.28125 -21.59375 C 3.59375 -22.96875 3.25 -24.535156 3.25 -26.296875 C 3.25 -26.617188 3.285156 -27.1875 3.359375 -28 C 3.753906 -31.257812 5.109375 -33.894531 7.421875 -35.90625 C 9.734375 -37.925781 12.613281 -38.9375 16.0625 -38.9375 C 19.21875 -38.9375 21.703125 -38.09375 23.515625 -36.40625 C 25.328125 -34.71875 26.234375 -32.445312 26.234375 -29.59375 C 26.234375 -29.257812 26.195312 -28.726562 26.125 -28 L 25.953125 -26.78125 C 25.921875 -26.53125 25.820312 -26.328125 25.65625 -26.171875 C 25.488281 -26.023438 25.296875 -25.953125 25.078125 -25.953125 L 16.78125 -25.953125 C 16.550781 -25.953125 16.375 -26.023438 16.25 -26.171875 C 16.125 -26.328125 16.078125 -26.53125 16.109375 -26.78125 L 16.28125 -28.21875 C 16.3125 -28.769531 16.207031 -29.21875 15.96875 -29.5625 C 15.738281 -29.90625 15.398438 -30.078125 14.953125 -30.078125 C 14.441406 -30.078125 14.019531 -29.859375 13.6875 -29.421875 C 13.363281 -28.984375 13.203125 -28.398438 13.203125 -27.671875 C 13.203125 -27.046875 13.457031 -26.398438 13.96875 -25.734375 C 14.476562 -25.078125 15.429688 -24.160156 16.828125 -22.984375 C 18.703125 -21.410156 20.132812 -20.132812 21.125 -19.15625 C 22.113281 -18.1875 22.890625 -17.125 23.453125 -15.96875 C 24.023438 -14.820312 24.3125 -13.515625 24.3125 -12.046875 C 24.3125 -11.753906 24.273438 -11.238281 24.203125 -10.5 C 23.765625 -7.164062 22.378906 -4.507812 20.046875 -2.53125 C 17.722656 -0.550781 14.851562 0.4375 11.4375 0.4375 Z M 11.4375 0.4375" transform="translate(313.337 210.722)"/></g></g></g><g fill="#FF3847"><g><g><path d="M 11.609375 0.4375 C 8.378906 0.4375 5.835938 -0.410156 3.984375 -2.109375 C 2.128906 -3.816406 1.203125 -6.140625 1.203125 -9.078125 C 1.203125 -9.398438 1.238281 -9.96875 1.3125 -10.78125 L 3.40625 -27.78125 C 3.8125 -31.1875 5.207031 -33.894531 7.59375 -35.90625 C 9.976562 -37.925781 12.925781 -38.9375 16.4375 -38.9375 C 19.632812 -38.9375 22.175781 -38.070312 24.0625 -36.34375 C 25.945312 -34.625 26.890625 -32.300781 26.890625 -29.375 C 26.890625 -28.96875 26.851562 -28.398438 26.78125 -27.671875 L 26.5625 -25.84375 C 26.457031 -25.300781 26.144531 -25.03125 25.625 -25.03125 L 17.21875 -25.03125 C 16.957031 -25.03125 16.757812 -25.101562 16.625 -25.25 C 16.5 -25.394531 16.457031 -25.59375 16.5 -25.84375 L 16.78125 -27.78125 C 16.851562 -28.46875 16.757812 -29.019531 16.5 -29.4375 C 16.238281 -29.863281 15.875 -30.078125 15.40625 -30.078125 C 14.882812 -30.078125 14.441406 -29.863281 14.078125 -29.4375 C 13.710938 -29.019531 13.492188 -28.46875 13.421875 -27.78125 L 11.328125 -10.71875 C 11.253906 -10.03125 11.34375 -9.472656 11.59375 -9.046875 C 11.851562 -8.628906 12.222656 -8.421875 12.703125 -8.421875 C 13.210938 -8.421875 13.640625 -8.628906 13.984375 -9.046875 C 14.335938 -9.472656 14.550781 -10.03125 14.625 -10.71875 L 15.015625 -13.46875 C 15.015625 -13.65625 14.921875 -13.75 14.734375 -13.75 L 14.296875 -13.75 C 14.046875 -13.75 13.851562 -13.820312 13.71875 -13.96875 C 13.59375 -14.113281 13.546875 -14.316406 13.578125 -14.578125 L 14.359375 -20.90625 C 14.390625 -21.15625 14.488281 -21.351562 14.65625 -21.5 C 14.820312 -21.644531 15.015625 -21.71875 15.234375 -21.71875 L 25.25 -21.71875 C 25.5 -21.71875 25.6875 -21.644531 25.8125 -21.5 C 25.945312 -21.351562 25.992188 -21.15625 25.953125 -20.90625 L 24.6875 -10.78125 C 24.289062 -7.375 22.890625 -4.648438 20.484375 -2.609375 C 18.085938 -0.578125 15.128906 0.4375 11.609375 0.4375 Z M 11.609375 0.4375" transform="translate(203.965 209.25)"/></g></g></g><g fill="#FF3847"><g><g><path d="M 17.109375 0 C 16.585938 0 16.347656 -0.253906 16.390625 -0.765625 L 16.28125 -4.953125 C 16.3125 -5.023438 16.289062 -5.085938 16.21875 -5.140625 C 16.144531 -5.191406 16.070312 -5.21875 16 -5.21875 L 11.21875 -5.21875 C 11.03125 -5.21875 10.898438 -5.128906 10.828125 -4.953125 L 9.796875 -0.765625 C 9.679688 -0.253906 9.367188 0 8.859375 0 L 0.5 0 C -0.0507812 0 -0.253906 -0.289062 -0.109375 -0.875 L 11.984375 -37.78125 C 12.128906 -38.257812 12.460938 -38.5 12.984375 -38.5 L 22.71875 -38.5 C 23.226562 -38.5 23.503906 -38.257812 23.546875 -37.78125 L 26.5625 -0.875 L 26.5625 -0.765625 C 26.5625 -0.253906 26.285156 0 25.734375 0 Z M 13.09375 -13.421875 C 13.019531 -13.234375 13.070312 -13.140625 13.25 -13.140625 L 15.84375 -13.140625 C 15.945312 -13.140625 16.035156 -13.234375 16.109375 -13.421875 L 15.890625 -23.59375 C 15.890625 -23.738281 15.84375 -23.800781 15.75 -23.78125 C 15.664062 -23.769531 15.625 -23.707031 15.625 -23.59375 Z M 13.09375 -13.421875" transform="translate(229.483 209.25)"/></g></g></g><g fill="#FF3847"><g><g><path d="M 22.609375 -37.890625 C 22.828125 -38.296875 23.15625 -38.5 23.59375 -38.5 L 31.953125 -38.5 C 32.171875 -38.5 32.34375 -38.425781 32.46875 -38.28125 C 32.601562 -38.132812 32.648438 -37.929688 32.609375 -37.671875 L 28.109375 -0.828125 C 28.066406 -0.566406 27.960938 -0.363281 27.796875 -0.21875 C 27.640625 -0.0703125 27.445312 0 27.21875 0 L 18.75 0 C 18.53125 0 18.359375 -0.0703125 18.234375 -0.21875 C 18.109375 -0.363281 18.0625 -0.566406 18.09375 -0.828125 L 20.84375 -23.3125 C 20.882812 -23.46875 20.859375 -23.550781 20.765625 -23.5625 C 20.671875 -23.582031 20.585938 -23.539062 20.515625 -23.4375 L 16.78125 -18.046875 L 16.109375 -17.046875 L 16.0625 -17.046875 L 13.25 -23.4375 C 13.21875 -23.539062 13.164062 -23.582031 13.09375 -23.5625 C 13.019531 -23.550781 12.960938 -23.46875 12.921875 -23.3125 L 10.171875 -0.828125 C 10.140625 -0.566406 10.050781 -0.363281 9.90625 -0.21875 C 9.757812 -0.0703125 9.554688 0 9.296875 0 L 0.875 0 C 0.625 0 0.429688 -0.0703125 0.296875 -0.21875 C 0.171875 -0.363281 0.128906 -0.566406 0.171875 -0.828125 L 4.671875 -37.671875 C 4.710938 -37.929688 4.8125 -38.132812 4.96875 -38.28125 C 5.132812 -38.425781 5.332031 -38.5 5.5625 -38.5 L 13.921875 -38.5 C 14.359375 -38.5 14.648438 -38.296875 14.796875 -37.890625 L 17.703125 -30.75 C 17.773438 -30.601562 17.890625 -30.601562 18.046875 -30.75 Z M 22.609375 -37.890625" transform="translate(257.806 209.25)"/></g></g></g><g fill="#FF3847"><g><g><path d="M 25.40625 -30.46875 C 25.375 -30.207031 25.273438 -30.003906 25.109375 -29.859375 C 24.941406 -29.710938 24.726562 -29.640625 24.46875 -29.640625 L 14.25 -29.640625 C 14.0625 -29.640625 13.96875 -29.550781 13.96875 -29.375 L 13.3125 -23.984375 C 13.238281 -23.796875 13.3125 -23.703125 13.53125 -23.703125 L 18.859375 -23.703125 C 19.117188 -23.703125 19.3125 -23.628906 19.4375 -23.484375 C 19.570312 -23.335938 19.617188 -23.132812 19.578125 -22.875 L 18.703125 -15.671875 C 18.585938 -15.117188 18.273438 -14.84375 17.765625 -14.84375 L 12.4375 -14.84375 C 12.25 -14.84375 12.15625 -14.753906 12.15625 -14.578125 L 11.5 -9.125 C 11.425781 -8.945312 11.5 -8.859375 11.71875 -8.859375 L 21.9375 -8.859375 C 22.195312 -8.859375 22.390625 -8.785156 22.515625 -8.640625 C 22.648438 -8.492188 22.695312 -8.289062 22.65625 -8.03125 L 21.78125 -0.828125 C 21.738281 -0.566406 21.632812 -0.363281 21.46875 -0.21875 C 21.3125 -0.0703125 21.101562 0 20.84375 0 L 1.09375 0 C 0.875 0 0.703125 -0.0703125 0.578125 -0.21875 C 0.453125 -0.363281 0.40625 -0.566406 0.4375 -0.828125 L 4.953125 -37.671875 C 4.984375 -37.929688 5.082031 -38.132812 5.25 -38.28125 C 5.414062 -38.425781 5.609375 -38.5 5.828125 -38.5 L 25.578125 -38.5 C 25.828125 -38.5 26.015625 -38.425781 26.140625 -38.28125 C 26.273438 -38.132812 26.328125 -37.929688 26.296875 -37.671875 Z M 25.40625 -30.46875" transform="translate(287.999 209.25)"/></g></g></g><g fill="#FF3847"><g><g><path d="M 11.4375 0.4375 C 8.28125 0.4375 5.785156 -0.375 3.953125 -2 C 2.117188 -3.632812 1.203125 -5.8125 1.203125 -8.53125 C 1.203125 -8.78125 1.238281 -9.238281 1.3125 -9.90625 L 1.546875 -11.609375 C 1.578125 -11.859375 1.675781 -12.054688 1.84375 -12.203125 C 2.007812 -12.359375 2.203125 -12.4375 2.421875 -12.4375 L 10.78125 -12.4375 C 11 -12.4375 11.171875 -12.359375 11.296875 -12.203125 C 11.429688 -12.054688 11.476562 -11.859375 11.4375 -11.609375 L 11.328125 -10.390625 C 11.253906 -9.804688 11.328125 -9.332031 11.546875 -8.96875 C 11.765625 -8.601562 12.097656 -8.421875 12.546875 -8.421875 C 13.015625 -8.421875 13.414062 -8.617188 13.75 -9.015625 C 14.082031 -9.421875 14.25 -9.914062 14.25 -10.5 C 14.25 -11.050781 13.984375 -11.617188 13.453125 -12.203125 C 12.921875 -12.796875 11.898438 -13.695312 10.390625 -14.90625 C 8.921875 -16.113281 7.707031 -17.1875 6.75 -18.125 C 5.800781 -19.0625 4.976562 -20.21875 4.28125 -21.59375 C 3.59375 -22.96875 3.25 -24.535156 3.25 -26.296875 C 3.25 -26.617188 3.285156 -27.1875 3.359375 -28 C 3.753906 -31.257812 5.109375 -33.894531 7.421875 -35.90625 C 9.734375 -37.925781 12.613281 -38.9375 16.0625 -38.9375 C 19.21875 -38.9375 21.703125 -38.09375 23.515625 -36.40625 C 25.328125 -34.71875 26.234375 -32.445312 26.234375 -29.59375 C 26.234375 -29.257812 26.195312 -28.726562 26.125 -28 L 25.953125 -26.78125 C 25.921875 -26.53125 25.820312 -26.328125 25.65625 -26.171875 C 25.488281 -26.023438 25.296875 -25.953125 25.078125 -25.953125 L 16.78125 -25.953125 C 16.550781 -25.953125 16.375 -26.023438 16.25 -26.171875 C 16.125 -26.328125 16.078125 -26.53125 16.109375 -26.78125 L 16.28125 -28.21875 C 16.3125 -28.769531 16.207031 -29.21875 15.96875 -29.5625 C 15.738281 -29.90625 15.398438 -30.078125 14.953125 -30.078125 C 14.441406 -30.078125 14.019531 -29.859375 13.6875 -29.421875 C 13.363281 -28.984375 13.203125 -28.398438 13.203125 -27.671875 C 13.203125 -27.046875 13.457031 -26.398438 13.96875 -25.734375 C 14.476562 -25.078125 15.429688 -24.160156 16.828125 -22.984375 C 18.703125 -21.410156 20.132812 -20.132812 21.125 -19.15625 C 22.113281 -18.1875 22.890625 -17.125 23.453125 -15.96875 C 24.023438 -14.820312 24.3125 -13.515625 24.3125 -12.046875 C 24.3125 -11.753906 24.273438 -11.238281 24.203125 -10.5 C 23.765625 -7.164062 22.378906 -4.507812 20.046875 -2.53125 C 17.722656 -0.550781 14.851562 0.4375 11.4375 0.4375 Z M 11.4375 0.4375" transform="translate(311.702 209.25)"/></g></g></g></svg>
